<mxfile host="app.diagrams.net" modified="2021-03-15T05:01:30.373Z" agent="5.0 (Windows NT 10.0; Win64; x64) AppleWebKit/537.36 (KHTML, like Gecko) Chrome/88.0.4324.190 Safari/537.36" etag="62SbckrFAb3RANOVrL4t" version="14.4.8" type="github">
  <diagram id="D8fP1rWcKyjfJTmIoYzf" name="Page-1">
    <mxGraphModel dx="2770" dy="1323" grid="1" gridSize="10" guides="1" tooltips="1" connect="1" arrows="1" fold="1" page="1" pageScale="1" pageWidth="850" pageHeight="1100" math="0" shadow="0">
      <root>
        <mxCell id="0" />
        <mxCell id="1" parent="0" />
        <mxCell id="3H3uGRBCsn2Afm0DeiXc-1" value="Depreciation_Factors" style="html=1;overflow=block;blockSpacing=1;whiteSpace=wrap;swimlane;childLayout=stackLayout;horizontal=1;horizontalStack=0;resizeParent=1;resizeParentMax=0;resizeLast=0;collapsible=0;fontStyle=0;marginBottom=0;swimlaneFillColor=#ffffff;startSize=30;whiteSpace=wrap;fontSize=13.3;fontColor=#333333;fontStyle=2;align=center;spacingLeft=8.4;spacingRight=8.4;spacingTop=2.4;whiteSpace=wrap;fontFamily=Helvetica;spacing=3.6;strokeColor=#333333;strokeOpacity=100;fillOpacity=100;rounded=1;absoluteArcSize=1;arcSize=7.5;fillColor=#ffffff;strokeWidth=0.8;fillColor=#e0e0e0;" parent="1" vertex="1">
          <mxGeometry x="550" y="597.75" width="150" height="207" as="geometry" />
        </mxCell>
        <mxCell id="-xnILZnBBjIAdlvHm83F-10" value="&lt;u&gt;factor_id&amp;nbsp;&lt;/u&gt;" style="part=1;resizeHeight=0;strokeColor=none;align=left;verticalAlign=top;spacingLeft=4;spacingRight=4;overflow=hidden;rotatable=0;points=[[0,0.5],[1,0.5]];portConstraint=eastwest;html=1;whiteSpace=wrap;swimlaneFillColor=#ffffff;fontSize=13.3;fontColor=#333333;fontStyle=2;fillColor=none;strokeOpacity=100;fillOpacity=100;" parent="3H3uGRBCsn2Afm0DeiXc-1" vertex="1">
          <mxGeometry y="30" width="150" height="26.25" as="geometry" />
        </mxCell>
        <mxCell id="3H3uGRBCsn2Afm0DeiXc-2" value="salvage" style="part=1;resizeHeight=0;strokeColor=none;align=left;verticalAlign=top;spacingLeft=4;spacingRight=4;overflow=hidden;rotatable=0;points=[[0,0.5],[1,0.5]];portConstraint=eastwest;html=1;whiteSpace=wrap;swimlaneFillColor=#ffffff;fontSize=13.3;fontColor=#333333;fontStyle=2;fillColor=none;strokeOpacity=100;fillOpacity=100;" parent="3H3uGRBCsn2Afm0DeiXc-1" vertex="1">
          <mxGeometry y="56.25" width="150" height="26.25" as="geometry" />
        </mxCell>
        <mxCell id="3H3uGRBCsn2Afm0DeiXc-3" value="saving_amount" style="part=1;resizeHeight=0;strokeColor=none;align=left;verticalAlign=top;spacingLeft=4;spacingRight=4;overflow=hidden;rotatable=0;points=[[0,0.5],[1,0.5]];portConstraint=eastwest;html=1;whiteSpace=wrap;swimlaneFillColor=#ffffff;fontSize=13.3;fontColor=#333333;fontStyle=2;fillColor=#000000;opacity=5;" parent="3H3uGRBCsn2Afm0DeiXc-1" vertex="1">
          <mxGeometry y="82.5" width="150" height="26.25" as="geometry" />
        </mxCell>
        <mxCell id="3H3uGRBCsn2Afm0DeiXc-4" value="has_accidents" style="part=1;resizeHeight=0;strokeColor=none;align=left;verticalAlign=top;spacingLeft=4;spacingRight=4;overflow=hidden;rotatable=0;points=[[0,0.5],[1,0.5]];portConstraint=eastwest;html=1;whiteSpace=wrap;swimlaneFillColor=#ffffff;fontSize=13.3;fontColor=#333333;fontStyle=2;fillColor=none;strokeOpacity=100;fillOpacity=100;" parent="3H3uGRBCsn2Afm0DeiXc-1" vertex="1">
          <mxGeometry y="108.75" width="150" height="26.25" as="geometry" />
        </mxCell>
        <mxCell id="3H3uGRBCsn2Afm0DeiXc-5" value="owner_count" style="part=1;resizeHeight=0;strokeColor=none;align=left;verticalAlign=top;spacingLeft=4;spacingRight=4;overflow=hidden;rotatable=0;points=[[0,0.5],[1,0.5]];portConstraint=eastwest;html=1;whiteSpace=wrap;swimlaneFillColor=#ffffff;fontSize=13;fontStyle=2;fillColor=#000000;opacity=5;" parent="3H3uGRBCsn2Afm0DeiXc-1" vertex="1">
          <mxGeometry y="135" width="150" height="24" as="geometry" />
        </mxCell>
        <mxCell id="3H3uGRBCsn2Afm0DeiXc-6" value="frame_damaged" style="part=1;resizeHeight=0;strokeColor=none;align=left;verticalAlign=top;spacingLeft=4;spacingRight=4;overflow=hidden;rotatable=0;points=[[0,0.5],[1,0.5]];portConstraint=eastwest;html=1;whiteSpace=wrap;swimlaneFillColor=#ffffff;fontSize=13;fontStyle=2;fillColor=none;strokeOpacity=100;fillOpacity=100;" parent="3H3uGRBCsn2Afm0DeiXc-1" vertex="1">
          <mxGeometry y="159" width="150" height="24" as="geometry" />
        </mxCell>
        <mxCell id="3H3uGRBCsn2Afm0DeiXc-7" value="is_new&amp;nbsp;" style="part=1;resizeHeight=0;strokeColor=none;align=left;verticalAlign=top;spacingLeft=4;spacingRight=4;overflow=hidden;rotatable=0;points=[[0,0.5],[1,0.5]];portConstraint=eastwest;html=1;whiteSpace=wrap;swimlaneFillColor=#ffffff;fontSize=13;fontStyle=2;fillColor=#000000;opacity=5;" parent="3H3uGRBCsn2Afm0DeiXc-1" vertex="1">
          <mxGeometry y="183" width="150" height="24" as="geometry" />
        </mxCell>
        <mxCell id="3H3uGRBCsn2Afm0DeiXc-8" value="" style="group;dropTarget=0;" parent="1" vertex="1">
          <mxGeometry x="440" y="51" width="640" height="45" as="geometry" />
        </mxCell>
        <UserObject label="Used Cars ERD" lucidchartObjectId="7P10iKuZFoYz" id="3H3uGRBCsn2Afm0DeiXc-9">
          <mxCell style="html=1;overflow=block;blockSpacing=1;whiteSpace=wrap;;whiteSpace=wrap;fontSize=19.7;fontColor=#a9afb8;fontStyle=1;align=center;spacingLeft=7;spacingRight=7;spacingTop=2;spacing=3;strokeOpacity=0;fillOpacity=0;rounded=1;absoluteArcSize=1;arcSize=12;fillColor=#ffffff;strokeWidth=1.5;" parent="3H3uGRBCsn2Afm0DeiXc-8" vertex="1">
            <mxGeometry width="640" height="31" as="geometry" />
          </mxCell>
        </UserObject>
        <UserObject label="" lucidchartObjectId="7P10aUWg2QfL" id="3H3uGRBCsn2Afm0DeiXc-10">
          <mxCell style="html=1;overflow=block;blockSpacing=1;whiteSpace=wrap;;whiteSpace=wrap;fontSize=13;align=center;spacingLeft=7;spacingRight=7;spacingTop=2;spacing=3;strokeOpacity=0;fillOpacity=0;rounded=1;absoluteArcSize=1;arcSize=12;fillColor=#ffffff;strokeWidth=1.5;" parent="3H3uGRBCsn2Afm0DeiXc-8" vertex="1">
            <mxGeometry y="31" width="640" height="14" as="geometry" />
          </mxCell>
        </UserObject>
        <UserObject label="" lucidchartObjectId="7P10Vx7zko9V" id="3H3uGRBCsn2Afm0DeiXc-11">
          <mxCell style="html=1;jettySize=18;whiteSpace=wrap;fontSize=13;fontFamily=Helvetica;strokeColor=#a9afb8;strokeOpacity=100;strokeWidth=1.5;rounded=0;startArrow=none;;endArrow=none;;" parent="3H3uGRBCsn2Afm0DeiXc-8" edge="1">
            <mxGeometry width="100" height="100" relative="1" as="geometry">
              <Array as="points" />
              <mxPoint x="135" y="30" as="sourcePoint" />
              <mxPoint x="508" y="30" as="targetPoint" />
            </mxGeometry>
          </mxCell>
        </UserObject>
        <mxCell id="3H3uGRBCsn2Afm0DeiXc-12" value="Car" style="html=1;overflow=block;blockSpacing=1;whiteSpace=wrap;swimlane;childLayout=stackLayout;horizontal=1;horizontalStack=0;resizeParent=1;resizeParentMax=0;resizeLast=0;collapsible=0;fontStyle=0;marginBottom=0;swimlaneFillColor=#ffffff;startSize=30;whiteSpace=wrap;fontSize=13.3;fontColor=#333333;fontStyle=2;align=center;spacingLeft=8.4;spacingRight=8.4;spacingTop=2.4;whiteSpace=wrap;fontFamily=Helvetica;spacing=3.6;strokeColor=#333333;strokeOpacity=100;fillOpacity=100;rounded=1;absoluteArcSize=1;arcSize=7.5;fillColor=#ffffff;strokeWidth=0.8;fillColor=#e0e0e0;" parent="1" vertex="1">
          <mxGeometry x="475" y="154" width="150" height="228.75" as="geometry" />
        </mxCell>
        <mxCell id="3H3uGRBCsn2Afm0DeiXc-13" value="&lt;u&gt;VIN&amp;nbsp;&lt;/u&gt;" style="part=1;resizeHeight=0;strokeColor=none;align=left;verticalAlign=top;spacingLeft=4;spacingRight=4;overflow=hidden;rotatable=0;points=[[0,0.5],[1,0.5]];portConstraint=eastwest;html=1;whiteSpace=wrap;swimlaneFillColor=#ffffff;fontSize=13.3;fontColor=#333333;fontStyle=2;fillColor=none;strokeOpacity=100;fillOpacity=100;" parent="3H3uGRBCsn2Afm0DeiXc-12" vertex="1">
          <mxGeometry y="30" width="150" height="26.25" as="geometry" />
        </mxCell>
        <mxCell id="3H3uGRBCsn2Afm0DeiXc-14" value="body_type" style="part=1;resizeHeight=0;strokeColor=none;align=left;verticalAlign=top;spacingLeft=4;spacingRight=4;overflow=hidden;rotatable=0;points=[[0,0.5],[1,0.5]];portConstraint=eastwest;html=1;whiteSpace=wrap;swimlaneFillColor=#ffffff;fontSize=13.3;fontColor=#333333;fontStyle=2;fillColor=#000000;opacity=5;" parent="3H3uGRBCsn2Afm0DeiXc-12" vertex="1">
          <mxGeometry y="56.25" width="150" height="26.25" as="geometry" />
        </mxCell>
        <mxCell id="3H3uGRBCsn2Afm0DeiXc-15" value="height" style="part=1;resizeHeight=0;strokeColor=none;align=left;verticalAlign=top;spacingLeft=4;spacingRight=4;overflow=hidden;rotatable=0;points=[[0,0.5],[1,0.5]];portConstraint=eastwest;html=1;whiteSpace=wrap;swimlaneFillColor=#ffffff;fontSize=13;fontStyle=2;fillColor=none;strokeOpacity=100;fillOpacity=100;" parent="3H3uGRBCsn2Afm0DeiXc-12" vertex="1">
          <mxGeometry y="82.5" width="150" height="24" as="geometry" />
        </mxCell>
        <mxCell id="3H3uGRBCsn2Afm0DeiXc-16" value="year" style="part=1;resizeHeight=0;strokeColor=none;align=left;verticalAlign=top;spacingLeft=4;spacingRight=4;overflow=hidden;rotatable=0;points=[[0,0.5],[1,0.5]];portConstraint=eastwest;html=1;whiteSpace=wrap;swimlaneFillColor=#ffffff;fontSize=13;fontStyle=2;fillColor=#000000;opacity=5;" parent="3H3uGRBCsn2Afm0DeiXc-12" vertex="1">
          <mxGeometry y="106.5" width="150" height="24" as="geometry" />
        </mxCell>
        <mxCell id="3H3uGRBCsn2Afm0DeiXc-17" value="model_name" style="part=1;resizeHeight=0;strokeColor=none;align=left;verticalAlign=top;spacingLeft=4;spacingRight=4;overflow=hidden;rotatable=0;points=[[0,0.5],[1,0.5]];portConstraint=eastwest;html=1;whiteSpace=wrap;swimlaneFillColor=#ffffff;fontSize=13;fontStyle=2;fillColor=none;strokeOpacity=100;fillOpacity=100;" parent="3H3uGRBCsn2Afm0DeiXc-12" vertex="1">
          <mxGeometry y="130.5" width="150" height="24" as="geometry" />
        </mxCell>
        <mxCell id="3H3uGRBCsn2Afm0DeiXc-18" value="franchise_make" style="part=1;resizeHeight=0;strokeColor=none;align=left;verticalAlign=top;spacingLeft=4;spacingRight=4;overflow=hidden;rotatable=0;points=[[0,0.5],[1,0.5]];portConstraint=eastwest;html=1;whiteSpace=wrap;swimlaneFillColor=#ffffff;fontSize=13.3;fontColor=#333333;fontStyle=2;fillColor=#000000;opacity=5;" parent="3H3uGRBCsn2Afm0DeiXc-12" vertex="1">
          <mxGeometry y="154.5" width="150" height="26.25" as="geometry" />
        </mxCell>
        <mxCell id="3H3uGRBCsn2Afm0DeiXc-19" value="fleet&amp;nbsp;" style="part=1;resizeHeight=0;strokeColor=none;align=left;verticalAlign=top;spacingLeft=4;spacingRight=4;overflow=hidden;rotatable=0;points=[[0,0.5],[1,0.5]];portConstraint=eastwest;html=1;whiteSpace=wrap;swimlaneFillColor=#ffffff;fontSize=13;fontStyle=2;fillColor=none;strokeOpacity=100;fillOpacity=100;" parent="3H3uGRBCsn2Afm0DeiXc-12" vertex="1">
          <mxGeometry y="180.75" width="150" height="24" as="geometry" />
        </mxCell>
        <mxCell id="3H3uGRBCsn2Afm0DeiXc-20" value="isCab&amp;nbsp;" style="part=1;resizeHeight=0;strokeColor=none;align=left;verticalAlign=top;spacingLeft=4;spacingRight=4;overflow=hidden;rotatable=0;points=[[0,0.5],[1,0.5]];portConstraint=eastwest;html=1;whiteSpace=wrap;swimlaneFillColor=#ffffff;fontSize=13;fontStyle=2;fillColor=#000000;opacity=5;" parent="3H3uGRBCsn2Afm0DeiXc-12" vertex="1">
          <mxGeometry y="204.75" width="150" height="24" as="geometry" />
        </mxCell>
        <mxCell id="3H3uGRBCsn2Afm0DeiXc-21" value="Engine" style="html=1;overflow=block;blockSpacing=1;whiteSpace=wrap;swimlane;childLayout=stackLayout;horizontal=1;horizontalStack=0;resizeParent=1;resizeParentMax=0;resizeLast=0;collapsible=0;fontStyle=0;marginBottom=0;swimlaneFillColor=#ffffff;startSize=30;whiteSpace=wrap;fontSize=13.3;fontColor=#333333;fontStyle=2;align=center;spacingLeft=8.4;spacingRight=8.4;spacingTop=2.4;whiteSpace=wrap;fontFamily=Helvetica;spacing=3.6;strokeColor=#333333;strokeOpacity=100;fillOpacity=100;rounded=1;absoluteArcSize=1;arcSize=7.5;fillColor=#ffffff;strokeWidth=0.8;fillColor=#e0e0e0;" parent="1" vertex="1">
          <mxGeometry x="377.5" y="597.13" width="150" height="207" as="geometry" />
        </mxCell>
        <mxCell id="-xnILZnBBjIAdlvHm83F-12" value="&lt;u&gt;engine_id&amp;nbsp;&lt;/u&gt;" style="part=1;resizeHeight=0;strokeColor=none;align=left;verticalAlign=top;spacingLeft=4;spacingRight=4;overflow=hidden;rotatable=0;points=[[0,0.5],[1,0.5]];portConstraint=eastwest;html=1;whiteSpace=wrap;swimlaneFillColor=#ffffff;fontSize=13.3;fontColor=#333333;fontStyle=2;fillColor=none;strokeOpacity=100;fillOpacity=100;" parent="3H3uGRBCsn2Afm0DeiXc-21" vertex="1">
          <mxGeometry y="30" width="150" height="26.25" as="geometry" />
        </mxCell>
        <mxCell id="3H3uGRBCsn2Afm0DeiXc-22" value="engine_cylinders" style="part=1;resizeHeight=0;strokeColor=none;align=left;verticalAlign=top;spacingLeft=4;spacingRight=4;overflow=hidden;rotatable=0;points=[[0,0.5],[1,0.5]];portConstraint=eastwest;html=1;whiteSpace=wrap;swimlaneFillColor=#ffffff;fontSize=13.3;fontColor=#333333;fontStyle=2;fillColor=none;strokeOpacity=100;fillOpacity=100;" parent="3H3uGRBCsn2Afm0DeiXc-21" vertex="1">
          <mxGeometry y="56.25" width="150" height="26.25" as="geometry" />
        </mxCell>
        <mxCell id="3H3uGRBCsn2Afm0DeiXc-23" value="engine_displacement" style="part=1;resizeHeight=0;strokeColor=none;align=left;verticalAlign=top;spacingLeft=4;spacingRight=4;overflow=hidden;rotatable=0;points=[[0,0.5],[1,0.5]];portConstraint=eastwest;html=1;whiteSpace=wrap;swimlaneFillColor=#ffffff;fontSize=13.3;fontColor=#333333;fontStyle=2;fillColor=#000000;opacity=5;" parent="3H3uGRBCsn2Afm0DeiXc-21" vertex="1">
          <mxGeometry y="82.5" width="150" height="26.25" as="geometry" />
        </mxCell>
        <mxCell id="3H3uGRBCsn2Afm0DeiXc-24" value="engine_type&amp;nbsp;" style="part=1;resizeHeight=0;strokeColor=none;align=left;verticalAlign=top;spacingLeft=4;spacingRight=4;overflow=hidden;rotatable=0;points=[[0,0.5],[1,0.5]];portConstraint=eastwest;html=1;whiteSpace=wrap;swimlaneFillColor=#ffffff;fontSize=13.3;fontColor=#333333;fontStyle=2;fillColor=none;strokeOpacity=100;fillOpacity=100;" parent="3H3uGRBCsn2Afm0DeiXc-21" vertex="1">
          <mxGeometry y="108.75" width="150" height="26.25" as="geometry" />
        </mxCell>
        <mxCell id="3H3uGRBCsn2Afm0DeiXc-25" value="horsepower&amp;nbsp;" style="part=1;resizeHeight=0;strokeColor=none;align=left;verticalAlign=top;spacingLeft=4;spacingRight=4;overflow=hidden;rotatable=0;points=[[0,0.5],[1,0.5]];portConstraint=eastwest;html=1;whiteSpace=wrap;swimlaneFillColor=#ffffff;fontSize=13;fontStyle=2;fillColor=#000000;opacity=5;" parent="3H3uGRBCsn2Afm0DeiXc-21" vertex="1">
          <mxGeometry y="135" width="150" height="24" as="geometry" />
        </mxCell>
        <mxCell id="3H3uGRBCsn2Afm0DeiXc-26" value="transmission" style="part=1;resizeHeight=0;strokeColor=none;align=left;verticalAlign=top;spacingLeft=4;spacingRight=4;overflow=hidden;rotatable=0;points=[[0,0.5],[1,0.5]];portConstraint=eastwest;html=1;whiteSpace=wrap;swimlaneFillColor=#ffffff;fontSize=13;fontStyle=2;fillColor=none;strokeOpacity=100;fillOpacity=100;" parent="3H3uGRBCsn2Afm0DeiXc-21" vertex="1">
          <mxGeometry y="159" width="150" height="24" as="geometry" />
        </mxCell>
        <mxCell id="3H3uGRBCsn2Afm0DeiXc-27" value="transmission_display" style="part=1;resizeHeight=0;strokeColor=none;align=left;verticalAlign=top;spacingLeft=4;spacingRight=4;overflow=hidden;rotatable=0;points=[[0,0.5],[1,0.5]];portConstraint=eastwest;html=1;whiteSpace=wrap;swimlaneFillColor=#ffffff;fontSize=13;fontStyle=2;fillColor=#000000;opacity=5;" parent="3H3uGRBCsn2Afm0DeiXc-21" vertex="1">
          <mxGeometry y="183" width="150" height="24" as="geometry" />
        </mxCell>
        <mxCell id="3H3uGRBCsn2Afm0DeiXc-28" value="WheelSystem" style="html=1;overflow=block;blockSpacing=1;whiteSpace=wrap;swimlane;childLayout=stackLayout;horizontal=1;horizontalStack=0;resizeParent=1;resizeParentMax=0;resizeLast=0;collapsible=0;fontStyle=0;marginBottom=0;swimlaneFillColor=#ffffff;startSize=30;whiteSpace=wrap;fontSize=13.3;fontColor=#333333;fontStyle=2;align=center;spacingLeft=8.4;spacingRight=8.4;spacingTop=2.4;whiteSpace=wrap;fontFamily=Helvetica;spacing=3.6;strokeColor=#333333;strokeOpacity=100;fillOpacity=100;rounded=1;absoluteArcSize=1;arcSize=7.5;fillColor=#ffffff;strokeWidth=0.8;fillColor=#e0e0e0;" parent="1" vertex="1">
          <mxGeometry x="60" y="450" width="150" height="135" as="geometry" />
        </mxCell>
        <mxCell id="-xnILZnBBjIAdlvHm83F-14" value="&lt;u&gt;system_id&amp;nbsp;&lt;/u&gt;" style="part=1;resizeHeight=0;strokeColor=none;align=left;verticalAlign=top;spacingLeft=4;spacingRight=4;overflow=hidden;rotatable=0;points=[[0,0.5],[1,0.5]];portConstraint=eastwest;html=1;whiteSpace=wrap;swimlaneFillColor=#ffffff;fontSize=13.3;fontColor=#333333;fontStyle=2;fillColor=#000000;opacity=5;" parent="3H3uGRBCsn2Afm0DeiXc-28" vertex="1">
          <mxGeometry y="30" width="150" height="26.25" as="geometry" />
        </mxCell>
        <mxCell id="3H3uGRBCsn2Afm0DeiXc-29" value="wheel_system" style="part=1;resizeHeight=0;strokeColor=none;align=left;verticalAlign=top;spacingLeft=4;spacingRight=4;overflow=hidden;rotatable=0;points=[[0,0.5],[1,0.5]];portConstraint=eastwest;html=1;whiteSpace=wrap;swimlaneFillColor=#ffffff;fontSize=13.3;fontColor=#333333;fontStyle=2;fillColor=none;strokeOpacity=100;fillOpacity=100;" parent="3H3uGRBCsn2Afm0DeiXc-28" vertex="1">
          <mxGeometry y="56.25" width="150" height="26.25" as="geometry" />
        </mxCell>
        <mxCell id="3H3uGRBCsn2Afm0DeiXc-30" value="wheel_system_display" style="part=1;resizeHeight=0;strokeColor=none;align=left;verticalAlign=top;spacingLeft=4;spacingRight=4;overflow=hidden;rotatable=0;points=[[0,0.5],[1,0.5]];portConstraint=eastwest;html=1;whiteSpace=wrap;swimlaneFillColor=#ffffff;fontSize=13.3;fontColor=#333333;fontStyle=2;fillColor=#000000;opacity=5;" parent="3H3uGRBCsn2Afm0DeiXc-28" vertex="1">
          <mxGeometry y="82.5" width="150" height="26.25" as="geometry" />
        </mxCell>
        <mxCell id="3H3uGRBCsn2Afm0DeiXc-31" value="wheelbase" style="part=1;resizeHeight=0;strokeColor=none;align=left;verticalAlign=top;spacingLeft=4;spacingRight=4;overflow=hidden;rotatable=0;points=[[0,0.5],[1,0.5]];portConstraint=eastwest;html=1;whiteSpace=wrap;swimlaneFillColor=#ffffff;fontSize=13.3;fontColor=#333333;fontStyle=2;fillColor=none;strokeOpacity=100;fillOpacity=100;" parent="3H3uGRBCsn2Afm0DeiXc-28" vertex="1">
          <mxGeometry y="108.75" width="150" height="26.25" as="geometry" />
        </mxCell>
        <mxCell id="3H3uGRBCsn2Afm0DeiXc-32" value="FuelSpecs" style="html=1;overflow=block;blockSpacing=1;whiteSpace=wrap;swimlane;childLayout=stackLayout;horizontal=1;horizontalStack=0;resizeParent=1;resizeParentMax=0;resizeLast=0;collapsible=0;fontStyle=0;marginBottom=0;swimlaneFillColor=#ffffff;startSize=30;whiteSpace=wrap;fontSize=13.3;fontColor=#333333;fontStyle=2;align=center;spacingLeft=8.4;spacingRight=8.4;spacingTop=2.4;whiteSpace=wrap;fontFamily=Helvetica;spacing=3.6;strokeColor=#333333;strokeOpacity=100;fillOpacity=100;rounded=1;absoluteArcSize=1;arcSize=7.5;fillColor=#ffffff;strokeWidth=0.8;fillColor=#e0e0e0;" parent="1" vertex="1">
          <mxGeometry x="850" y="248.63" width="150" height="159" as="geometry" />
        </mxCell>
        <mxCell id="-xnILZnBBjIAdlvHm83F-8" value="&lt;u&gt;spec_id&amp;nbsp;&lt;/u&gt;" style="part=1;resizeHeight=0;strokeColor=none;align=left;verticalAlign=top;spacingLeft=4;spacingRight=4;overflow=hidden;rotatable=0;points=[[0,0.5],[1,0.5]];portConstraint=eastwest;html=1;whiteSpace=wrap;swimlaneFillColor=#ffffff;fontSize=13.3;fontColor=#333333;fontStyle=2;fillColor=none;strokeOpacity=100;fillOpacity=100;" parent="3H3uGRBCsn2Afm0DeiXc-32" vertex="1">
          <mxGeometry y="30" width="150" height="26.25" as="geometry" />
        </mxCell>
        <mxCell id="3H3uGRBCsn2Afm0DeiXc-33" value="city_fuel_economy" style="part=1;resizeHeight=0;strokeColor=none;align=left;verticalAlign=top;spacingLeft=4;spacingRight=4;overflow=hidden;rotatable=0;points=[[0,0.5],[1,0.5]];portConstraint=eastwest;html=1;whiteSpace=wrap;swimlaneFillColor=#ffffff;fontSize=13.3;fontColor=#333333;fontStyle=2;fillColor=none;strokeOpacity=100;fillOpacity=100;" parent="3H3uGRBCsn2Afm0DeiXc-32" vertex="1">
          <mxGeometry y="56.25" width="150" height="26.25" as="geometry" />
        </mxCell>
        <mxCell id="3H3uGRBCsn2Afm0DeiXc-34" value="fuel_tank_volume" style="part=1;resizeHeight=0;strokeColor=none;align=left;verticalAlign=top;spacingLeft=4;spacingRight=4;overflow=hidden;rotatable=0;points=[[0,0.5],[1,0.5]];portConstraint=eastwest;html=1;whiteSpace=wrap;swimlaneFillColor=#ffffff;fontSize=13.3;fontColor=#333333;fontStyle=2;fillColor=#000000;opacity=5;" parent="3H3uGRBCsn2Afm0DeiXc-32" vertex="1">
          <mxGeometry y="82.5" width="150" height="26.25" as="geometry" />
        </mxCell>
        <mxCell id="3H3uGRBCsn2Afm0DeiXc-35" value="fuel_type" style="part=1;resizeHeight=0;strokeColor=none;align=left;verticalAlign=top;spacingLeft=4;spacingRight=4;overflow=hidden;rotatable=0;points=[[0,0.5],[1,0.5]];portConstraint=eastwest;html=1;whiteSpace=wrap;swimlaneFillColor=#ffffff;fontSize=13.3;fontColor=#333333;fontStyle=2;fillColor=none;strokeOpacity=100;fillOpacity=100;" parent="3H3uGRBCsn2Afm0DeiXc-32" vertex="1">
          <mxGeometry y="108.75" width="150" height="26.25" as="geometry" />
        </mxCell>
        <mxCell id="3H3uGRBCsn2Afm0DeiXc-36" value="highway_fuel_economy" style="part=1;resizeHeight=0;strokeColor=none;align=left;verticalAlign=top;spacingLeft=4;spacingRight=4;overflow=hidden;rotatable=0;points=[[0,0.5],[1,0.5]];portConstraint=eastwest;html=1;whiteSpace=wrap;swimlaneFillColor=#ffffff;fontSize=13;fontStyle=2;fillColor=#000000;opacity=5;" parent="3H3uGRBCsn2Afm0DeiXc-32" vertex="1">
          <mxGeometry y="135" width="150" height="24" as="geometry" />
        </mxCell>
        <mxCell id="3H3uGRBCsn2Afm0DeiXc-37" value="Interior" style="html=1;overflow=block;blockSpacing=1;whiteSpace=wrap;swimlane;childLayout=stackLayout;horizontal=1;horizontalStack=0;resizeParent=1;resizeParentMax=0;resizeLast=0;collapsible=0;fontStyle=0;marginBottom=0;swimlaneFillColor=#ffffff;startSize=30;whiteSpace=wrap;fontSize=13.3;fontColor=#333333;fontStyle=2;align=center;spacingLeft=8.4;spacingRight=8.4;spacingTop=2.4;whiteSpace=wrap;fontFamily=Helvetica;spacing=3.6;strokeColor=#333333;strokeOpacity=100;fillOpacity=100;rounded=1;absoluteArcSize=1;arcSize=7.5;fillColor=#ffffff;strokeWidth=0.8;fillColor=#e0e0e0;" parent="1" vertex="1">
          <mxGeometry x="40" y="152.5" width="150" height="156.75" as="geometry" />
        </mxCell>
        <mxCell id="-xnILZnBBjIAdlvHm83F-13" value="&lt;u&gt;package_id&amp;nbsp;&lt;/u&gt;" style="part=1;resizeHeight=0;strokeColor=none;align=left;verticalAlign=top;spacingLeft=4;spacingRight=4;overflow=hidden;rotatable=0;points=[[0,0.5],[1,0.5]];portConstraint=eastwest;html=1;whiteSpace=wrap;swimlaneFillColor=#ffffff;fontSize=13;fontStyle=2;fillColor=#000000;opacity=5;" parent="3H3uGRBCsn2Afm0DeiXc-37" vertex="1">
          <mxGeometry y="30" width="150" height="24" as="geometry" />
        </mxCell>
        <mxCell id="3H3uGRBCsn2Afm0DeiXc-38" value="back_legroom" style="part=1;resizeHeight=0;strokeColor=none;align=left;verticalAlign=top;spacingLeft=4;spacingRight=4;overflow=hidden;rotatable=0;points=[[0,0.5],[1,0.5]];portConstraint=eastwest;html=1;whiteSpace=wrap;swimlaneFillColor=#ffffff;fontSize=13.3;fontColor=#333333;fontStyle=2;fillColor=none;strokeOpacity=100;fillOpacity=100;" parent="3H3uGRBCsn2Afm0DeiXc-37" vertex="1">
          <mxGeometry y="54" width="150" height="26.25" as="geometry" />
        </mxCell>
        <mxCell id="3H3uGRBCsn2Afm0DeiXc-39" value="front_legroom" style="part=1;resizeHeight=0;strokeColor=none;align=left;verticalAlign=top;spacingLeft=4;spacingRight=4;overflow=hidden;rotatable=0;points=[[0,0.5],[1,0.5]];portConstraint=eastwest;html=1;whiteSpace=wrap;swimlaneFillColor=#ffffff;fontSize=13.3;fontColor=#333333;fontStyle=2;fillColor=#000000;opacity=5;" parent="3H3uGRBCsn2Afm0DeiXc-37" vertex="1">
          <mxGeometry y="80.25" width="150" height="26.25" as="geometry" />
        </mxCell>
        <mxCell id="3H3uGRBCsn2Afm0DeiXc-40" value="interior_color" style="part=1;resizeHeight=0;strokeColor=none;align=left;verticalAlign=top;spacingLeft=4;spacingRight=4;overflow=hidden;rotatable=0;points=[[0,0.5],[1,0.5]];portConstraint=eastwest;html=1;whiteSpace=wrap;swimlaneFillColor=#ffffff;fontSize=13.3;fontColor=#333333;fontStyle=2;fillColor=none;strokeOpacity=100;fillOpacity=100;" parent="3H3uGRBCsn2Afm0DeiXc-37" vertex="1">
          <mxGeometry y="106.5" width="150" height="26.25" as="geometry" />
        </mxCell>
        <mxCell id="3H3uGRBCsn2Afm0DeiXc-41" value="maximum_seating" style="part=1;resizeHeight=0;strokeColor=none;align=left;verticalAlign=top;spacingLeft=4;spacingRight=4;overflow=hidden;rotatable=0;points=[[0,0.5],[1,0.5]];portConstraint=eastwest;html=1;whiteSpace=wrap;swimlaneFillColor=#ffffff;fontSize=13;fontStyle=2;fillColor=#000000;opacity=5;" parent="3H3uGRBCsn2Afm0DeiXc-37" vertex="1">
          <mxGeometry y="132.75" width="150" height="24" as="geometry" />
        </mxCell>
        <mxCell id="3H3uGRBCsn2Afm0DeiXc-42" value="TrimPackage" style="html=1;overflow=block;blockSpacing=1;whiteSpace=wrap;swimlane;childLayout=stackLayout;horizontal=1;horizontalStack=0;resizeParent=1;resizeParentMax=0;resizeLast=0;collapsible=0;fontStyle=0;marginBottom=0;swimlaneFillColor=#ffffff;startSize=30;whiteSpace=wrap;fontSize=13.3;fontColor=#333333;fontStyle=2;align=center;spacingLeft=8.4;spacingRight=8.4;spacingTop=2.4;whiteSpace=wrap;fontFamily=Helvetica;spacing=3.6;strokeColor=#333333;strokeOpacity=100;fillOpacity=100;rounded=1;absoluteArcSize=1;arcSize=7.5;fillColor=#ffffff;strokeWidth=0.8;fillColor=#e0e0e0;" parent="1" vertex="1">
          <mxGeometry x="807.5" y="488.38" width="150" height="108.75" as="geometry" />
        </mxCell>
        <mxCell id="-xnILZnBBjIAdlvHm83F-9" value="&lt;u&gt;trim_package_id&amp;nbsp;&lt;/u&gt;" style="part=1;resizeHeight=0;strokeColor=none;align=left;verticalAlign=top;spacingLeft=4;spacingRight=4;overflow=hidden;rotatable=0;points=[[0,0.5],[1,0.5]];portConstraint=eastwest;html=1;whiteSpace=wrap;swimlaneFillColor=#ffffff;fontSize=13.3;fontColor=#333333;fontStyle=2;fillColor=none;strokeOpacity=100;fillOpacity=100;" parent="3H3uGRBCsn2Afm0DeiXc-42" vertex="1">
          <mxGeometry y="30" width="150" height="26.25" as="geometry" />
        </mxCell>
        <mxCell id="3H3uGRBCsn2Afm0DeiXc-43" value="trim_id&amp;nbsp;" style="part=1;resizeHeight=0;strokeColor=none;align=left;verticalAlign=top;spacingLeft=4;spacingRight=4;overflow=hidden;rotatable=0;points=[[0,0.5],[1,0.5]];portConstraint=eastwest;html=1;whiteSpace=wrap;swimlaneFillColor=#ffffff;fontSize=13.3;fontColor=#333333;fontStyle=2;fillColor=none;strokeOpacity=100;fillOpacity=100;" parent="3H3uGRBCsn2Afm0DeiXc-42" vertex="1">
          <mxGeometry y="56.25" width="150" height="26.25" as="geometry" />
        </mxCell>
        <mxCell id="3H3uGRBCsn2Afm0DeiXc-44" value="trim_name" style="part=1;resizeHeight=0;strokeColor=none;align=left;verticalAlign=top;spacingLeft=4;spacingRight=4;overflow=hidden;rotatable=0;points=[[0,0.5],[1,0.5]];portConstraint=eastwest;html=1;whiteSpace=wrap;swimlaneFillColor=#ffffff;fontSize=13.3;fontColor=#333333;fontStyle=2;fillColor=#000000;opacity=5;" parent="3H3uGRBCsn2Afm0DeiXc-42" vertex="1">
          <mxGeometry y="82.5" width="150" height="26.25" as="geometry" />
        </mxCell>
        <mxCell id="3H3uGRBCsn2Afm0DeiXc-45" value="Listing" style="html=1;overflow=block;blockSpacing=1;whiteSpace=wrap;swimlane;childLayout=stackLayout;horizontal=1;horizontalStack=0;resizeParent=1;resizeParentMax=0;resizeLast=0;collapsible=0;fontStyle=0;marginBottom=0;swimlaneFillColor=#ffffff;startSize=30;whiteSpace=wrap;fontSize=13.3;fontColor=#333333;fontStyle=2;align=center;spacingLeft=8.4;spacingRight=8.4;spacingTop=2.4;whiteSpace=wrap;fontFamily=Helvetica;spacing=3.6;strokeColor=#333333;strokeOpacity=100;fillOpacity=100;rounded=1;absoluteArcSize=1;arcSize=7.5;fillColor=#ffffff;strokeWidth=0.8;fillColor=#e0e0e0;" parent="1" vertex="1">
          <mxGeometry x="1050" y="86.25" width="145" height="228.75" as="geometry" />
        </mxCell>
        <mxCell id="3H3uGRBCsn2Afm0DeiXc-46" value="&lt;u&gt;listing_id&amp;nbsp;&lt;/u&gt;" style="part=1;resizeHeight=0;strokeColor=none;align=left;verticalAlign=top;spacingLeft=4;spacingRight=4;overflow=hidden;rotatable=0;points=[[0,0.5],[1,0.5]];portConstraint=eastwest;html=1;whiteSpace=wrap;swimlaneFillColor=#ffffff;fontSize=13;fontStyle=2;fillColor=none;strokeOpacity=100;fillOpacity=100;" parent="3H3uGRBCsn2Afm0DeiXc-45" vertex="1">
          <mxGeometry y="30" width="145" height="24" as="geometry" />
        </mxCell>
        <mxCell id="3H3uGRBCsn2Afm0DeiXc-47" value="listing_date" style="part=1;resizeHeight=0;strokeColor=none;align=left;verticalAlign=top;spacingLeft=4;spacingRight=4;overflow=hidden;rotatable=0;points=[[0,0.5],[1,0.5]];portConstraint=eastwest;html=1;whiteSpace=wrap;swimlaneFillColor=#ffffff;fontSize=13;fontStyle=2;fillColor=#000000;opacity=5;" parent="3H3uGRBCsn2Afm0DeiXc-45" vertex="1">
          <mxGeometry y="54" width="145" height="24" as="geometry" />
        </mxCell>
        <mxCell id="3H3uGRBCsn2Afm0DeiXc-48" value="daysOnMarket&amp;nbsp;" style="part=1;resizeHeight=0;strokeColor=none;align=left;verticalAlign=top;spacingLeft=4;spacingRight=4;overflow=hidden;rotatable=0;points=[[0,0.5],[1,0.5]];portConstraint=eastwest;html=1;whiteSpace=wrap;swimlaneFillColor=#ffffff;fontSize=13.3;fontColor=#333333;fontStyle=2;fillColor=none;strokeOpacity=100;fillOpacity=100;" parent="3H3uGRBCsn2Afm0DeiXc-45" vertex="1">
          <mxGeometry y="78" width="145" height="26.25" as="geometry" />
        </mxCell>
        <mxCell id="3H3uGRBCsn2Afm0DeiXc-49" value="description" style="part=1;resizeHeight=0;strokeColor=none;align=left;verticalAlign=top;spacingLeft=4;spacingRight=4;overflow=hidden;rotatable=0;points=[[0,0.5],[1,0.5]];portConstraint=eastwest;html=1;whiteSpace=wrap;swimlaneFillColor=#ffffff;fontSize=13.3;fontColor=#333333;fontStyle=2;fillColor=#000000;opacity=5;" parent="3H3uGRBCsn2Afm0DeiXc-45" vertex="1">
          <mxGeometry y="104.25" width="145" height="26.25" as="geometry" />
        </mxCell>
        <mxCell id="3H3uGRBCsn2Afm0DeiXc-50" value="city" style="part=1;resizeHeight=0;strokeColor=none;align=left;verticalAlign=top;spacingLeft=4;spacingRight=4;overflow=hidden;rotatable=0;points=[[0,0.5],[1,0.5]];portConstraint=eastwest;html=1;whiteSpace=wrap;swimlaneFillColor=#ffffff;fontSize=13;fontStyle=2;fillColor=none;strokeOpacity=100;fillOpacity=100;" parent="3H3uGRBCsn2Afm0DeiXc-45" vertex="1">
          <mxGeometry y="130.5" width="145" height="24" as="geometry" />
        </mxCell>
        <mxCell id="3H3uGRBCsn2Afm0DeiXc-51" value="main_picture_url&amp;nbsp;" style="part=1;resizeHeight=0;strokeColor=none;align=left;verticalAlign=top;spacingLeft=4;spacingRight=4;overflow=hidden;rotatable=0;points=[[0,0.5],[1,0.5]];portConstraint=eastwest;html=1;whiteSpace=wrap;swimlaneFillColor=#ffffff;fontSize=13;fontStyle=2;fillColor=#000000;opacity=5;" parent="3H3uGRBCsn2Afm0DeiXc-45" vertex="1">
          <mxGeometry y="154.5" width="145" height="24" as="geometry" />
        </mxCell>
        <mxCell id="3H3uGRBCsn2Afm0DeiXc-52" value="major_options" style="part=1;resizeHeight=0;strokeColor=none;align=left;verticalAlign=top;spacingLeft=4;spacingRight=4;overflow=hidden;rotatable=0;points=[[0,0.5],[1,0.5]];portConstraint=eastwest;html=1;whiteSpace=wrap;swimlaneFillColor=#ffffff;fontSize=13.3;fontColor=#333333;fontStyle=2;fillColor=none;strokeOpacity=100;fillOpacity=100;" parent="3H3uGRBCsn2Afm0DeiXc-45" vertex="1">
          <mxGeometry y="178.5" width="145" height="26.25" as="geometry" />
        </mxCell>
        <mxCell id="3H3uGRBCsn2Afm0DeiXc-53" value="price&lt;br&gt;" style="part=1;resizeHeight=0;strokeColor=none;align=left;verticalAlign=top;spacingLeft=4;spacingRight=4;overflow=hidden;rotatable=0;points=[[0,0.5],[1,0.5]];portConstraint=eastwest;html=1;whiteSpace=wrap;swimlaneFillColor=#ffffff;fontSize=13;fontStyle=2;fillColor=#000000;opacity=5;" parent="3H3uGRBCsn2Afm0DeiXc-45" vertex="1">
          <mxGeometry y="204.75" width="145" height="24" as="geometry" />
        </mxCell>
        <mxCell id="3H3uGRBCsn2Afm0DeiXc-54" value="Dealer_Address" style="html=1;overflow=block;blockSpacing=1;whiteSpace=wrap;swimlane;childLayout=stackLayout;horizontal=1;horizontalStack=0;resizeParent=1;resizeParentMax=0;resizeLast=0;collapsible=0;fontStyle=0;marginBottom=0;swimlaneFillColor=#ffffff;startSize=30;whiteSpace=wrap;fontSize=13.3;fontColor=#333333;fontStyle=2;align=center;spacingLeft=8.4;spacingRight=8.4;spacingTop=2.4;whiteSpace=wrap;fontFamily=Helvetica;spacing=3.6;strokeColor=#333333;strokeOpacity=100;fillOpacity=100;rounded=1;absoluteArcSize=1;arcSize=7.5;fillColor=#ffffff;strokeWidth=0.8;fillColor=#e0e0e0;" parent="1" vertex="1">
          <mxGeometry x="1047.5" y="834.12" width="150" height="108.75" as="geometry" />
        </mxCell>
        <mxCell id="3H3uGRBCsn2Afm0DeiXc-55" value="dealer_zip&amp;nbsp;" style="part=1;resizeHeight=0;strokeColor=none;align=left;verticalAlign=top;spacingLeft=4;spacingRight=4;overflow=hidden;rotatable=0;points=[[0,0.5],[1,0.5]];portConstraint=eastwest;html=1;whiteSpace=wrap;swimlaneFillColor=#ffffff;fontSize=13.3;fontColor=#333333;fontStyle=2;fillColor=none;strokeOpacity=100;fillOpacity=100;" parent="3H3uGRBCsn2Afm0DeiXc-54" vertex="1">
          <mxGeometry y="30" width="150" height="26.25" as="geometry" />
        </mxCell>
        <mxCell id="3H3uGRBCsn2Afm0DeiXc-56" value="&lt;u&gt;latitude&lt;/u&gt;" style="part=1;resizeHeight=0;strokeColor=none;align=left;verticalAlign=top;spacingLeft=4;spacingRight=4;overflow=hidden;rotatable=0;points=[[0,0.5],[1,0.5]];portConstraint=eastwest;html=1;whiteSpace=wrap;swimlaneFillColor=#ffffff;fontSize=13.3;fontColor=#333333;fontStyle=2;fillColor=#000000;opacity=5;" parent="3H3uGRBCsn2Afm0DeiXc-54" vertex="1">
          <mxGeometry y="56.25" width="150" height="26.25" as="geometry" />
        </mxCell>
        <mxCell id="3H3uGRBCsn2Afm0DeiXc-57" value="&lt;u&gt;longitude&lt;/u&gt;" style="part=1;resizeHeight=0;strokeColor=none;align=left;verticalAlign=top;spacingLeft=4;spacingRight=4;overflow=hidden;rotatable=0;points=[[0,0.5],[1,0.5]];portConstraint=eastwest;html=1;whiteSpace=wrap;swimlaneFillColor=#ffffff;fontSize=13.3;fontColor=#333333;fontStyle=2;fillColor=none;strokeOpacity=100;fillOpacity=100;" parent="3H3uGRBCsn2Afm0DeiXc-54" vertex="1">
          <mxGeometry y="82.5" width="150" height="26.25" as="geometry" />
        </mxCell>
        <mxCell id="fYfl7tJpDpbcizdKrOSa-76" style="edgeStyle=orthogonalEdgeStyle;rounded=0;orthogonalLoop=1;jettySize=auto;html=1;exitX=0;exitY=0.5;exitDx=0;exitDy=0;entryX=1;entryY=0.5;entryDx=0;entryDy=0;endArrow=none;endFill=0;" parent="1" source="3H3uGRBCsn2Afm0DeiXc-68" target="3H3uGRBCsn2Afm0DeiXc-39" edge="1">
          <mxGeometry relative="1" as="geometry" />
        </mxCell>
        <UserObject label="hasInterior" lucidchartObjectId="32GjfG8Nu4t0" id="3H3uGRBCsn2Afm0DeiXc-68">
          <mxCell style="html=1;overflow=block;blockSpacing=1;whiteSpace=wrap;rhombus;whiteSpace=wrap;fontSize=13.3;align=center;spacingLeft=8.4;spacingRight=8.4;spacingTop=2.4;spacing=3.8;strokeColor=#d79b00;strokeOpacity=100;fillOpacity=100;rounded=1;absoluteArcSize=1;arcSize=12;fillColor=#ffe6cc;strokeWidth=0.8;" parent="1" vertex="1">
            <mxGeometry x="272.5" y="144.5" width="120" height="90" as="geometry" />
          </mxCell>
        </UserObject>
        <UserObject label="" lucidchartObjectId="h3GjL-eOBlp6" id="3H3uGRBCsn2Afm0DeiXc-69">
          <mxCell style="html=1;jettySize=18;whiteSpace=wrap;fontSize=13;strokeColor=#333333;strokeOpacity=100;strokeWidth=0.8;rounded=1;arcSize=24;edgeStyle=orthogonalEdgeStyle;startArrow=none;;endArrow=none;;exitX=0.979;exitY=0.5;exitPerimeter=0;entryX=-0.002;entryY=0.431;entryPerimeter=0;" parent="1" source="3H3uGRBCsn2Afm0DeiXc-68" target="3H3uGRBCsn2Afm0DeiXc-12" edge="1">
            <mxGeometry width="100" height="100" relative="1" as="geometry">
              <Array as="points" />
            </mxGeometry>
          </mxCell>
        </UserObject>
        <UserObject label="1:1" lucidchartObjectId="73GjcrWZETkP" id="3H3uGRBCsn2Afm0DeiXc-71">
          <mxCell style="html=1;overflow=block;blockSpacing=1;whiteSpace=wrap;;whiteSpace=wrap;fontSize=13.3;fontColor=#333333;align=center;spacingLeft=8.4;spacingRight=8.4;spacingTop=2.4;spacing=3.8;strokeOpacity=0;fillOpacity=0;rounded=1;absoluteArcSize=1;arcSize=12;fillColor=#ffffff;strokeWidth=0.8;" parent="1" vertex="1">
            <mxGeometry x="430" y="207" width="45" height="45" as="geometry" />
          </mxCell>
        </UserObject>
        <UserObject label="1:*" lucidchartObjectId="j4GjQqDQOt2D" id="3H3uGRBCsn2Afm0DeiXc-72">
          <mxCell style="html=1;overflow=block;blockSpacing=1;whiteSpace=wrap;;whiteSpace=wrap;fontSize=13.3;fontColor=#333333;align=center;spacingLeft=8.4;spacingRight=8.4;spacingTop=2.4;spacing=3.8;strokeOpacity=0;fillOpacity=0;rounded=1;absoluteArcSize=1;arcSize=12;fillColor=#ffffff;strokeWidth=0.8;" parent="1" vertex="1">
            <mxGeometry x="190" y="210" width="45" height="45" as="geometry" />
          </mxCell>
        </UserObject>
        <UserObject label="hasWheelSystem" lucidchartObjectId="s4GjB7lhPDlH" id="3H3uGRBCsn2Afm0DeiXc-73">
          <mxCell style="html=1;overflow=block;blockSpacing=1;whiteSpace=wrap;rhombus;whiteSpace=wrap;fontSize=13.3;align=center;spacingLeft=8.4;spacingRight=8.4;spacingTop=2.4;spacing=3.8;strokeColor=#d6b656;strokeOpacity=100;fillOpacity=100;rounded=1;absoluteArcSize=1;arcSize=12;fillColor=#fff2cc;strokeWidth=0.8;" parent="1" vertex="1">
            <mxGeometry x="260" y="302.75" width="120" height="90" as="geometry" />
          </mxCell>
        </UserObject>
        <UserObject label="" lucidchartObjectId="A4GjGbd0esht" id="3H3uGRBCsn2Afm0DeiXc-74">
          <mxCell style="html=1;jettySize=18;whiteSpace=wrap;fontSize=13;strokeColor=#333333;strokeOpacity=100;strokeWidth=0.8;rounded=1;arcSize=24;edgeStyle=orthogonalEdgeStyle;startArrow=none;;endArrow=none;;exitX=0.979;exitY=0.5;exitPerimeter=0;entryX=-0.002;entryY=0.624;entryPerimeter=0;" parent="1" source="3H3uGRBCsn2Afm0DeiXc-73" target="3H3uGRBCsn2Afm0DeiXc-12" edge="1">
            <mxGeometry width="100" height="100" relative="1" as="geometry">
              <Array as="points" />
            </mxGeometry>
          </mxCell>
        </UserObject>
        <UserObject label="" lucidchartObjectId="I4Gj-FnmIbUl" id="3H3uGRBCsn2Afm0DeiXc-75">
          <mxCell style="html=1;jettySize=18;whiteSpace=wrap;fontSize=13;strokeColor=#333333;strokeOpacity=100;strokeWidth=0.8;rounded=1;arcSize=24;edgeStyle=orthogonalEdgeStyle;startArrow=none;;endArrow=none;;exitX=0.021;exitY=0.5;exitPerimeter=0;entryX=0.5;entryY=-0.003;entryPerimeter=0;" parent="1" source="3H3uGRBCsn2Afm0DeiXc-73" target="3H3uGRBCsn2Afm0DeiXc-28" edge="1">
            <mxGeometry width="100" height="100" relative="1" as="geometry">
              <Array as="points" />
            </mxGeometry>
          </mxCell>
        </UserObject>
        <UserObject label="1:*" lucidchartObjectId="P4GjsS0Jj-CR" id="3H3uGRBCsn2Afm0DeiXc-76">
          <mxCell style="html=1;overflow=block;blockSpacing=1;whiteSpace=wrap;;whiteSpace=wrap;fontSize=13.3;fontColor=#333333;align=center;spacingLeft=8.4;spacingRight=8.4;spacingTop=2.4;spacing=3.8;strokeOpacity=0;fillOpacity=0;rounded=1;absoluteArcSize=1;arcSize=12;fillColor=#ffffff;strokeWidth=0.8;" parent="1" vertex="1">
            <mxGeometry x="145" y="411.5" width="45" height="45" as="geometry" />
          </mxCell>
        </UserObject>
        <UserObject label="1:1" lucidchartObjectId="g5GjH8kYyFac" id="3H3uGRBCsn2Afm0DeiXc-77">
          <mxCell style="html=1;overflow=block;blockSpacing=1;whiteSpace=wrap;;whiteSpace=wrap;fontSize=13.3;fontColor=#333333;align=center;spacingLeft=8.4;spacingRight=8.4;spacingTop=2.4;spacing=3.8;strokeOpacity=0;fillOpacity=0;rounded=1;absoluteArcSize=1;arcSize=12;fillColor=#ffffff;strokeWidth=0.8;" parent="1" vertex="1">
            <mxGeometry x="432.5" y="293.63" width="45" height="45" as="geometry" />
          </mxCell>
        </UserObject>
        <mxCell id="-xnILZnBBjIAdlvHm83F-11" style="edgeStyle=orthogonalEdgeStyle;rounded=0;orthogonalLoop=1;jettySize=auto;html=1;exitX=0.5;exitY=1;exitDx=0;exitDy=0;entryX=0.5;entryY=0;entryDx=0;entryDy=0;endArrow=none;endFill=0;" parent="1" source="3H3uGRBCsn2Afm0DeiXc-78" target="3H3uGRBCsn2Afm0DeiXc-21" edge="1">
          <mxGeometry relative="1" as="geometry" />
        </mxCell>
        <UserObject label="hasEngine" lucidchartObjectId="y5GjIHtodc0m" id="3H3uGRBCsn2Afm0DeiXc-78">
          <mxCell style="html=1;overflow=block;blockSpacing=1;whiteSpace=wrap;rhombus;whiteSpace=wrap;fontSize=13.3;align=center;spacingLeft=8.4;spacingRight=8.4;spacingTop=2.4;spacing=3.8;strokeColor=#6c8ebf;strokeOpacity=100;fillOpacity=100;rounded=1;absoluteArcSize=1;arcSize=12;fillColor=#dae8fc;strokeWidth=0.8;" parent="1" vertex="1">
            <mxGeometry x="392.5" y="450" width="120" height="83" as="geometry" />
          </mxCell>
        </UserObject>
        <UserObject label="" lucidchartObjectId="U5GjOgPKRh0r" id="3H3uGRBCsn2Afm0DeiXc-79">
          <mxCell style="html=1;jettySize=18;whiteSpace=wrap;fontSize=13;strokeColor=#333333;strokeOpacity=100;strokeWidth=0.8;rounded=1;arcSize=24;edgeStyle=orthogonalEdgeStyle;startArrow=none;;endArrow=none;;exitX=0.5;exitY=0.02;exitPerimeter=0;entryX=0.5;entryY=1.002;entryPerimeter=0;" parent="1" source="3H3uGRBCsn2Afm0DeiXc-78" target="3H3uGRBCsn2Afm0DeiXc-12" edge="1">
            <mxGeometry width="100" height="100" relative="1" as="geometry">
              <Array as="points" />
            </mxGeometry>
          </mxCell>
        </UserObject>
        <UserObject label="1:1" lucidchartObjectId="95Gj1fsIyBRH" id="3H3uGRBCsn2Afm0DeiXc-81">
          <mxCell style="html=1;overflow=block;blockSpacing=1;whiteSpace=wrap;;whiteSpace=wrap;fontSize=13.3;fontColor=#333333;align=center;spacingLeft=8.4;spacingRight=8.4;spacingTop=2.4;spacing=3.8;strokeOpacity=0;fillOpacity=0;rounded=1;absoluteArcSize=1;arcSize=12;fillColor=#ffffff;strokeWidth=0.8;" parent="1" vertex="1">
            <mxGeometry x="505" y="373" width="45" height="45" as="geometry" />
          </mxCell>
        </UserObject>
        <UserObject label="1:*" lucidchartObjectId="a6Gj~o_7EbPB" id="3H3uGRBCsn2Afm0DeiXc-82">
          <mxCell style="html=1;overflow=block;blockSpacing=1;whiteSpace=wrap;;whiteSpace=wrap;fontSize=13.3;fontColor=#333333;align=center;spacingLeft=8.4;spacingRight=8.4;spacingTop=2.4;spacing=3.8;strokeOpacity=0;fillOpacity=0;rounded=1;absoluteArcSize=1;arcSize=12;fillColor=#ffffff;strokeWidth=0.8;" parent="1" vertex="1">
            <mxGeometry x="403" y="552.75" width="45" height="45" as="geometry" />
          </mxCell>
        </UserObject>
        <UserObject label="hasDepreciationFactors" lucidchartObjectId="i6Gjnlmd8xLU" id="3H3uGRBCsn2Afm0DeiXc-83">
          <mxCell style="html=1;overflow=block;blockSpacing=1;whiteSpace=wrap;rhombus;whiteSpace=wrap;fontSize=13.3;align=center;spacingLeft=8.4;spacingRight=8.4;spacingTop=2.4;spacing=3.8;strokeColor=#b85450;strokeOpacity=100;fillOpacity=100;rounded=1;absoluteArcSize=1;arcSize=12;fillColor=#f8cecc;strokeWidth=0.8;" parent="1" vertex="1">
            <mxGeometry x="542.5" y="450" width="165" height="83" as="geometry" />
          </mxCell>
        </UserObject>
        <UserObject label="" lucidchartObjectId="O6GjI_gVbZgb" id="3H3uGRBCsn2Afm0DeiXc-84">
          <mxCell style="html=1;jettySize=18;whiteSpace=wrap;fontSize=13;strokeColor=#333333;strokeOpacity=100;strokeWidth=0.8;rounded=1;arcSize=24;edgeStyle=orthogonalEdgeStyle;startArrow=none;;endArrow=none;;exitX=0.5;exitY=0.984;exitPerimeter=0;entryX=0.5;entryY=-0.002;entryPerimeter=0;" parent="1" source="3H3uGRBCsn2Afm0DeiXc-83" target="3H3uGRBCsn2Afm0DeiXc-1" edge="1">
            <mxGeometry width="100" height="100" relative="1" as="geometry">
              <Array as="points" />
            </mxGeometry>
          </mxCell>
        </UserObject>
        <UserObject label="" lucidchartObjectId="V6GjSA9~WkVU" id="3H3uGRBCsn2Afm0DeiXc-85">
          <mxCell style="html=1;jettySize=18;whiteSpace=wrap;fontSize=13;strokeColor=#333333;strokeOpacity=100;strokeWidth=0.8;rounded=1;arcSize=24;edgeStyle=orthogonalEdgeStyle;startArrow=none;;endArrow=none;;exitX=0.5;exitY=0.016;exitPerimeter=0;entryX=0.694;entryY=1.002;entryPerimeter=0;" parent="1" source="3H3uGRBCsn2Afm0DeiXc-83" target="3H3uGRBCsn2Afm0DeiXc-12" edge="1">
            <mxGeometry width="100" height="100" relative="1" as="geometry">
              <Array as="points" />
            </mxGeometry>
          </mxCell>
        </UserObject>
        <UserObject label="1:1" lucidchartObjectId="l7Gj7g9hhAWY" id="3H3uGRBCsn2Afm0DeiXc-86">
          <mxCell style="html=1;overflow=block;blockSpacing=1;whiteSpace=wrap;;whiteSpace=wrap;fontSize=13.3;fontColor=#333333;align=center;spacingLeft=8.4;spacingRight=8.4;spacingTop=2.4;spacing=3.8;strokeOpacity=0;fillOpacity=0;rounded=1;absoluteArcSize=1;arcSize=12;fillColor=#ffffff;strokeWidth=0.8;" parent="1" vertex="1">
            <mxGeometry x="580" y="373" width="45" height="45" as="geometry" />
          </mxCell>
        </UserObject>
        <UserObject label="1:*" lucidchartObjectId="p7Gj6SZfvsbE" id="3H3uGRBCsn2Afm0DeiXc-87">
          <mxCell style="html=1;overflow=block;blockSpacing=1;whiteSpace=wrap;;whiteSpace=wrap;fontSize=13.3;fontColor=#333333;align=center;spacingLeft=8.4;spacingRight=8.4;spacingTop=2.4;spacing=3.8;strokeOpacity=0;fillOpacity=0;rounded=1;absoluteArcSize=1;arcSize=12;fillColor=#ffffff;strokeWidth=0.8;" parent="1" vertex="1">
            <mxGeometry x="625" y="552.75" width="45" height="45" as="geometry" />
          </mxCell>
        </UserObject>
        <UserObject label="hasFuelSpecs" lucidchartObjectId="y7GjYFqWCwLM" id="3H3uGRBCsn2Afm0DeiXc-88">
          <mxCell style="html=1;overflow=block;blockSpacing=1;whiteSpace=wrap;rhombus;whiteSpace=wrap;fontSize=13.3;fontColor=#ffffff;align=center;spacingLeft=8.4;spacingRight=8.4;spacingTop=2.4;spacing=3.8;strokeColor=#2D7600;strokeOpacity=100;fillOpacity=100;rounded=1;absoluteArcSize=1;arcSize=12;fillColor=#60a917;strokeWidth=0.8;" parent="1" vertex="1">
            <mxGeometry x="645" y="240" width="120" height="90" as="geometry" />
          </mxCell>
        </UserObject>
        <UserObject label="" lucidchartObjectId="K7GjvXVLc7~8" id="3H3uGRBCsn2Afm0DeiXc-89">
          <mxCell style="html=1;jettySize=18;whiteSpace=wrap;fontSize=13;strokeColor=#333333;strokeOpacity=100;strokeWidth=0.8;rounded=1;arcSize=24;edgeStyle=orthogonalEdgeStyle;startArrow=none;;endArrow=none;;exitX=0.021;exitY=0.5;exitPerimeter=0;entryX=1.003;entryY=0.574;entryPerimeter=0;" parent="1" source="3H3uGRBCsn2Afm0DeiXc-88" target="3H3uGRBCsn2Afm0DeiXc-12" edge="1">
            <mxGeometry width="100" height="100" relative="1" as="geometry">
              <Array as="points" />
            </mxGeometry>
          </mxCell>
        </UserObject>
        <UserObject label="" lucidchartObjectId="Z7Gj.cjbfPW." id="3H3uGRBCsn2Afm0DeiXc-90">
          <mxCell style="html=1;jettySize=18;whiteSpace=wrap;fontSize=13;strokeColor=#333333;strokeOpacity=100;strokeWidth=0.8;rounded=1;arcSize=24;edgeStyle=orthogonalEdgeStyle;startArrow=none;;endArrow=none;;exitX=0.979;exitY=0.5;exitPerimeter=0;entryX=-0.002;entryY=0.523;entryPerimeter=0;" parent="1" source="3H3uGRBCsn2Afm0DeiXc-88" target="3H3uGRBCsn2Afm0DeiXc-32" edge="1">
            <mxGeometry width="100" height="100" relative="1" as="geometry">
              <Array as="points" />
            </mxGeometry>
          </mxCell>
        </UserObject>
        <UserObject label="1:1" lucidchartObjectId="_7Gj-IkTM0cN" id="3H3uGRBCsn2Afm0DeiXc-92">
          <mxCell style="html=1;overflow=block;blockSpacing=1;whiteSpace=wrap;;whiteSpace=wrap;fontSize=13.3;fontColor=#333333;align=center;spacingLeft=8.4;spacingRight=8.4;spacingTop=2.4;spacing=3.8;strokeOpacity=0;fillOpacity=0;rounded=1;absoluteArcSize=1;arcSize=12;fillColor=#ffffff;strokeWidth=0.8;" parent="1" vertex="1">
            <mxGeometry x="625" y="240" width="45" height="45" as="geometry" />
          </mxCell>
        </UserObject>
        <UserObject label="hasTrimSpecs" lucidchartObjectId="e8GjC.SVA9nN" id="3H3uGRBCsn2Afm0DeiXc-93">
          <mxCell style="html=1;overflow=block;blockSpacing=1;whiteSpace=wrap;rhombus;whiteSpace=wrap;fontSize=13.3;align=center;spacingLeft=8.4;spacingRight=8.4;spacingTop=2.4;spacing=3.8;strokeColor=#9673a6;strokeOpacity=100;fillOpacity=100;rounded=1;absoluteArcSize=1;arcSize=12;fillColor=#e1d5e7;strokeWidth=0.8;" parent="1" vertex="1">
            <mxGeometry x="700" y="345" width="120" height="90" as="geometry" />
          </mxCell>
        </UserObject>
        <UserObject label="" lucidchartObjectId="B8GjjtVN6iNQ" id="3H3uGRBCsn2Afm0DeiXc-94">
          <mxCell style="html=1;jettySize=18;whiteSpace=wrap;fontSize=13;strokeColor=#333333;strokeOpacity=100;strokeWidth=0.8;rounded=1;arcSize=24;edgeStyle=orthogonalEdgeStyle;startArrow=none;;endArrow=none;;exitX=0.5;exitY=0.98;exitPerimeter=0;entryX=0.5;entryY=-0.005;entryPerimeter=0;" parent="1" source="3H3uGRBCsn2Afm0DeiXc-93" target="3H3uGRBCsn2Afm0DeiXc-42" edge="1">
            <mxGeometry width="100" height="100" relative="1" as="geometry">
              <Array as="points" />
            </mxGeometry>
          </mxCell>
        </UserObject>
        <UserObject label="" lucidchartObjectId="E8GjDlsb.5GE" id="3H3uGRBCsn2Afm0DeiXc-95">
          <mxCell style="html=1;jettySize=18;whiteSpace=wrap;fontSize=13;strokeColor=#333333;strokeOpacity=100;strokeWidth=0.8;rounded=1;arcSize=24;edgeStyle=orthogonalEdgeStyle;startArrow=none;;endArrow=none;;exitX=0.5;exitY=0.02;exitPerimeter=0;entryX=1.003;entryY=0.844;entryPerimeter=0;" parent="1" source="3H3uGRBCsn2Afm0DeiXc-93" target="3H3uGRBCsn2Afm0DeiXc-12" edge="1">
            <mxGeometry width="100" height="100" relative="1" as="geometry">
              <Array as="points" />
            </mxGeometry>
          </mxCell>
        </UserObject>
        <UserObject label="1:*" lucidchartObjectId="S8Gj5Iz1SEM2" id="3H3uGRBCsn2Afm0DeiXc-96">
          <mxCell style="html=1;overflow=block;blockSpacing=1;whiteSpace=wrap;;whiteSpace=wrap;fontSize=13.3;fontColor=#333333;align=center;spacingLeft=8.4;spacingRight=8.4;spacingTop=2.4;spacing=3.8;strokeOpacity=0;fillOpacity=0;rounded=1;absoluteArcSize=1;arcSize=12;fillColor=#ffffff;strokeWidth=0.8;" parent="1" vertex="1">
            <mxGeometry x="880" y="443.38" width="45" height="45" as="geometry" />
          </mxCell>
        </UserObject>
        <UserObject label="1:1" lucidchartObjectId="X8GjYVzsjUEa" id="3H3uGRBCsn2Afm0DeiXc-97">
          <mxCell style="html=1;overflow=block;blockSpacing=1;whiteSpace=wrap;;whiteSpace=wrap;fontSize=13.3;fontColor=#333333;align=center;spacingLeft=8.4;spacingRight=8.4;spacingTop=2.4;spacing=3.8;strokeOpacity=0;fillOpacity=0;rounded=1;absoluteArcSize=1;arcSize=12;fillColor=#ffffff;strokeWidth=0.8;" parent="1" vertex="1">
            <mxGeometry x="625" y="315" width="45" height="45" as="geometry" />
          </mxCell>
        </UserObject>
        <mxCell id="fYfl7tJpDpbcizdKrOSa-72" style="edgeStyle=orthogonalEdgeStyle;rounded=0;orthogonalLoop=1;jettySize=auto;html=1;exitX=1;exitY=0.5;exitDx=0;exitDy=0;entryX=0;entryY=0.5;entryDx=0;entryDy=0;endArrow=none;endFill=0;" parent="1" source="3H3uGRBCsn2Afm0DeiXc-98" target="3H3uGRBCsn2Afm0DeiXc-49" edge="1">
          <mxGeometry relative="1" as="geometry" />
        </mxCell>
        <UserObject label="hasListing" lucidchartObjectId="b9Gj.C_cyj7R" id="3H3uGRBCsn2Afm0DeiXc-98">
          <mxCell style="html=1;overflow=block;blockSpacing=1;whiteSpace=wrap;rhombus;whiteSpace=wrap;fontSize=13.3;fontColor=#ffffff;align=center;spacingLeft=8.4;spacingRight=8.4;spacingTop=2.4;spacing=3.8;strokeColor=#001DBC;strokeOpacity=100;fillOpacity=100;rounded=1;absoluteArcSize=1;arcSize=12;fillColor=#0050ef;strokeWidth=0.8;" parent="1" vertex="1">
            <mxGeometry x="780" y="117" width="100" height="90" as="geometry" />
          </mxCell>
        </UserObject>
        <UserObject label="1:1" lucidchartObjectId="57Gj_qIqhHUQ" id="3H3uGRBCsn2Afm0DeiXc-102">
          <mxCell style="html=1;overflow=block;blockSpacing=1;whiteSpace=wrap;;whiteSpace=wrap;fontSize=13.3;fontColor=#333333;align=center;spacingLeft=8.4;spacingRight=8.4;spacingTop=2.4;spacing=3.8;strokeOpacity=0;fillOpacity=0;rounded=1;absoluteArcSize=1;arcSize=12;fillColor=#ffffff;strokeWidth=0.8;" parent="1" vertex="1">
            <mxGeometry x="1000" y="195" width="45" height="45" as="geometry" />
          </mxCell>
        </UserObject>
        <UserObject label="1:1" lucidchartObjectId="57Gj_qIqhHUQ" id="3H3uGRBCsn2Afm0DeiXc-107">
          <mxCell style="html=1;overflow=block;blockSpacing=1;whiteSpace=wrap;;whiteSpace=wrap;fontSize=13.3;fontColor=#333333;align=center;spacingLeft=8.4;spacingRight=8.4;spacingTop=2.4;spacing=3.8;strokeOpacity=0;fillOpacity=0;rounded=1;absoluteArcSize=1;arcSize=12;fillColor=#ffffff;strokeWidth=0.8;" parent="1" vertex="1">
            <mxGeometry x="620" y="152.5" width="45" height="45" as="geometry" />
          </mxCell>
        </UserObject>
        <mxCell id="3H3uGRBCsn2Afm0DeiXc-112" style="edgeStyle=none;rounded=0;orthogonalLoop=1;jettySize=auto;html=1;exitX=0;exitY=0.5;exitDx=0;exitDy=0;endArrow=none;endFill=0;" parent="1" edge="1">
          <mxGeometry relative="1" as="geometry">
            <mxPoint x="1077.5" y="457.75" as="sourcePoint" />
            <mxPoint x="1077.5" y="457.75" as="targetPoint" />
          </mxGeometry>
        </mxCell>
        <mxCell id="3H3uGRBCsn2Afm0DeiXc-125" style="edgeStyle=none;rounded=0;orthogonalLoop=1;jettySize=auto;html=1;exitX=0.5;exitY=1;exitDx=0;exitDy=0;entryX=0.503;entryY=-0.028;entryDx=0;entryDy=0;entryPerimeter=0;endArrow=none;endFill=0;" parent="1" source="3H3uGRBCsn2Afm0DeiXc-123" target="3H3uGRBCsn2Afm0DeiXc-54" edge="1">
          <mxGeometry relative="1" as="geometry" />
        </mxCell>
        <mxCell id="-7hL0iW8qwEzsGaJjZeS-2" style="edgeStyle=orthogonalEdgeStyle;rounded=0;orthogonalLoop=1;jettySize=auto;html=1;exitX=0.5;exitY=0;exitDx=0;exitDy=0;entryX=0.484;entryY=0.993;entryDx=0;entryDy=0;endArrow=none;endFill=0;entryPerimeter=0;" parent="1" source="3H3uGRBCsn2Afm0DeiXc-123" target="5wrPwZhWaSoWG8kTcGbm-4" edge="1">
          <mxGeometry relative="1" as="geometry">
            <mxPoint x="1122.5" y="766.12" as="targetPoint" />
          </mxGeometry>
        </mxCell>
        <UserObject label="livesIn" lucidchartObjectId="b9Gj.C_cyj7R" id="3H3uGRBCsn2Afm0DeiXc-123">
          <mxCell style="html=1;overflow=block;blockSpacing=1;whiteSpace=wrap;rhombus;whiteSpace=wrap;fontSize=13.3;fontColor=#ffffff;align=center;spacingLeft=8.4;spacingRight=8.4;spacingTop=2.4;spacing=3.8;strokeColor=#6F0000;strokeOpacity=100;fillOpacity=100;rounded=1;absoluteArcSize=1;arcSize=12;fillColor=#a20025;strokeWidth=0.8;" parent="1" vertex="1">
            <mxGeometry x="1062.5" y="722.12" width="120" height="82" as="geometry" />
          </mxCell>
        </UserObject>
        <UserObject label="1:*" lucidchartObjectId="57Gj_qIqhHUQ" id="3H3uGRBCsn2Afm0DeiXc-129">
          <mxCell style="html=1;overflow=block;blockSpacing=1;whiteSpace=wrap;;whiteSpace=wrap;fontSize=13.3;fontColor=#333333;align=center;spacingLeft=8.4;spacingRight=8.4;spacingTop=2.4;spacing=3.8;strokeOpacity=0;fillOpacity=0;rounded=1;absoluteArcSize=1;arcSize=12;fillColor=#ffffff;strokeWidth=0.8;" parent="1" vertex="1">
            <mxGeometry x="1077.5" y="794.12" width="45" height="45" as="geometry" />
          </mxCell>
        </UserObject>
        <UserObject label="&lt;div style=&quot;display: flex ; justify-content: center ; text-align: center ; align-items: baseline ; font-size: 0 ; line-height: 1.25 ; margin-left: 8.4px ; margin-right: 8.4px ; margin-top: 2.4px ; margin-top: -2px&quot;&gt;&lt;span&gt;&lt;span style=&quot;font-size: 13.3px&quot;&gt;&lt;font color=&quot;#ffffff&quot;&gt;&lt;br&gt;&lt;/font&gt;&lt;/span&gt;&lt;/span&gt;&lt;span&gt;&lt;span style=&quot;font-size: 13.3px&quot;&gt;&lt;font color=&quot;#ffffff&quot;&gt;&lt;br&gt;&lt;/font&gt;&lt;/span&gt;&lt;/span&gt;&lt;span&gt;&lt;span style=&quot;font-size: 13.3px&quot;&gt;&lt;font color=&quot;#ffffff&quot;&gt;&lt;br&gt;&lt;/font&gt;&lt;/span&gt;&lt;/span&gt;&lt;span&gt;&lt;span style=&quot;font-size: 13.3px&quot;&gt;&lt;font color=&quot;#ffffff&quot;&gt;&lt;br&gt;&lt;/font&gt;&lt;/span&gt;&lt;/span&gt;&lt;span&gt;&lt;span style=&quot;font-size: 13.3px&quot;&gt;&lt;font color=&quot;#ffffff&quot;&gt;&lt;br&gt;&lt;/font&gt;&lt;/span&gt;&lt;/span&gt;&lt;span&gt;&lt;span style=&quot;font-size: 13.3px&quot;&gt;&lt;font color=&quot;#ffffff&quot;&gt;&lt;br&gt;&lt;/font&gt;&lt;/span&gt;&lt;/span&gt;&lt;span&gt;&lt;span style=&quot;font-size: 13.3px&quot;&gt;&lt;font color=&quot;#ffffff&quot;&gt;&lt;br&gt;&lt;/font&gt;&lt;/span&gt;&lt;/span&gt;&lt;span&gt;&lt;span style=&quot;font-size: 13.3px&quot;&gt;&lt;font color=&quot;#ffffff&quot;&gt;&lt;br&gt;&lt;/font&gt;&lt;/span&gt;&lt;/span&gt;&lt;span&gt;&lt;span style=&quot;font-size: 13.3px&quot;&gt;&lt;font color=&quot;#ffffff&quot;&gt;What to do with all the nulls in the columns&lt;br&gt;&lt;/font&gt;&lt;/span&gt;&lt;/span&gt;&lt;/div&gt;&lt;div style=&quot;display: flex ; justify-content: center ; text-align: center ; align-items: baseline ; font-size: 0 ; line-height: 1.25 ; margin-left: 8.4px ; margin-right: 8.4px ; margin-top: 2.4px ; margin-top: -2px&quot;&gt;&lt;span&gt;&lt;span style=&quot;font-size: 13.3px&quot;&gt;&lt;font color=&quot;#ffffff&quot;&gt;&lt;br&gt;&lt;/font&gt;&lt;/span&gt;&lt;/span&gt;&lt;/div&gt;&lt;div style=&quot;display: flex ; justify-content: center ; text-align: center ; align-items: baseline ; font-size: 0 ; line-height: 1.25 ; margin-left: 8.4px ; margin-right: 8.4px ; margin-top: 2.4px ; margin-top: -2px&quot;&gt;&lt;span&gt;&lt;span style=&quot;font-size: 13.3px&quot;&gt;&lt;font color=&quot;#ffffff&quot;&gt;How to use dealer_zip with information in other address csv s - do I have to create separate tables and then union on latitude and longitude?&lt;br&gt;&lt;/font&gt;&lt;/span&gt;&lt;/span&gt;&lt;/div&gt;&lt;div style=&quot;display: flex ; justify-content: center ; text-align: center ; align-items: baseline ; font-size: 0 ; line-height: 1.25 ; margin-left: 8.4px ; margin-right: 8.4px ; margin-top: 2.4px ; margin-top: -2px&quot;&gt;&lt;span&gt;&lt;span style=&quot;font-size: 13.3px&quot;&gt;&lt;font color=&quot;#ffffff&quot;&gt;&lt;br&gt;&lt;/font&gt;&lt;/span&gt;&lt;/span&gt;&lt;/div&gt;&lt;div style=&quot;display: flex ; justify-content: center ; text-align: center ; align-items: baseline ; font-size: 0 ; line-height: 1.25 ; margin-left: 8.4px ; margin-right: 8.4px ; margin-top: 2.4px ; margin-top: -2px&quot;&gt;&lt;span&gt;&lt;span style=&quot;font-size: 13.3px&quot;&gt;&lt;font color=&quot;#ffffff&quot;&gt;Street, Number additional information is usually NULL, what to do then?&lt;br&gt;&lt;/font&gt;&lt;/span&gt;&lt;/span&gt;&lt;span&gt;&lt;span style=&quot;font-size: 13.3px&quot;&gt;&lt;font color=&quot;#ffffff&quot;&gt;&lt;br&gt;&lt;/font&gt;&lt;/span&gt;&lt;/span&gt;&lt;/div&gt;&lt;div style=&quot;display: flex ; justify-content: center ; text-align: center ; align-items: baseline ; font-size: 0 ; line-height: 1.25 ; margin-left: 8.4px ; margin-right: 8.4px ; margin-top: 2.4px ; margin-top: -2px&quot;&gt;&lt;span&gt;&lt;span style=&quot;font-size: 13.3px&quot;&gt;&lt;font color=&quot;#ffffff&quot;&gt;&lt;br&gt;&lt;/font&gt;&lt;/span&gt;&lt;/span&gt;&lt;/div&gt;&lt;div style=&quot;display: flex ; justify-content: center ; text-align: center ; align-items: baseline ; line-height: 1.25 ; margin-left: 8.4px ; margin-right: 8.4px ; margin-top: -2px&quot;&gt;&lt;span style=&quot;font-size: 0px&quot;&gt;&lt;span style=&quot;font-size: 13.3px&quot;&gt;&lt;font color=&quot;#ffffff&quot;&gt;Is it safe to save the password like this in the user table?&lt;/font&gt;&lt;/span&gt;&lt;/span&gt;&lt;span style=&quot;font-size: 0px&quot;&gt;&lt;span style=&quot;font-size: 13.3px&quot;&gt;&lt;font color=&quot;#ffffff&quot;&gt;&lt;br&gt;&lt;/font&gt;&lt;/span&gt;&lt;/span&gt;&lt;span style=&quot;font-size: 0px&quot;&gt;&lt;span style=&quot;font-size: 13.3px&quot;&gt;&lt;font color=&quot;#ffffff&quot;&gt;&lt;br&gt;&lt;/font&gt;&lt;/span&gt;&lt;/span&gt;&lt;span style=&quot;font-size: 0px&quot;&gt;&lt;span style=&quot;font-size: 13.3px&quot;&gt;&lt;font color=&quot;#ffffff&quot;&gt;&lt;br&gt;&lt;/font&gt;&lt;/span&gt;&lt;/span&gt;&lt;span style=&quot;font-size: 0px&quot;&gt;&lt;span style=&quot;font-size: 13.3px&quot;&gt;&lt;font color=&quot;#ffffff&quot;&gt;&lt;br&gt;&lt;/font&gt;&lt;/span&gt;&lt;/span&gt;&lt;span style=&quot;font-size: 0px&quot;&gt;&lt;span style=&quot;font-size: 13.3px&quot;&gt;&lt;font color=&quot;#ffffff&quot;&gt;&lt;br&gt;&lt;/font&gt;&lt;/span&gt;&lt;/span&gt;&lt;span style=&quot;font-size: 13.3px&quot;&gt;&lt;font color=&quot;#ffffff&quot;&gt;&lt;br&gt;&lt;/font&gt;&lt;/span&gt;&lt;span style=&quot;font-size: 13.3px&quot;&gt;&lt;font color=&quot;#ffffff&quot;&gt;&lt;br&gt;&lt;/font&gt;&lt;/span&gt;&lt;span style=&quot;font-size: 13.3px&quot;&gt;&lt;font color=&quot;#ffffff&quot;&gt;&lt;br&gt;&lt;/font&gt;&lt;/span&gt;&lt;span style=&quot;font-size: 13.3px&quot;&gt;&lt;font color=&quot;#ffffff&quot;&gt;&lt;br&gt;&lt;/font&gt;&lt;/span&gt;&lt;font color=&quot;#ffffff&quot;&gt;&lt;br&gt;&lt;br&gt;&lt;br&gt;&lt;br&gt;&lt;br&gt;&lt;br&gt;&lt;br&gt;&lt;br&gt;&lt;/font&gt;&lt;font color=&quot;#333333&quot;&gt;&lt;br&gt;&lt;/font&gt;&lt;/div&gt;" lucidchartObjectId="GJGjcdQu5Gi2" id="3H3uGRBCsn2Afm0DeiXc-130">
          <mxCell style="html=1;overflow=block;blockSpacing=1;whiteSpace=wrap;strokeColor=#B20000;fillColor=#e51400;whiteSpace=wrap;fontSize=13;spacing=0;strokeOpacity=100;fillOpacity=100;rounded=1;absoluteArcSize=1;arcSize=12;strokeWidth=0.8;fontColor=#ffffff;" parent="1" vertex="1">
            <mxGeometry x="65" y="930" width="510" height="120" as="geometry" />
          </mxCell>
        </UserObject>
        <UserObject label="1:1" lucidchartObjectId="57Gj_qIqhHUQ" id="3H3uGRBCsn2Afm0DeiXc-128">
          <mxCell style="html=1;overflow=block;blockSpacing=1;whiteSpace=wrap;;whiteSpace=wrap;fontSize=13.3;fontColor=#333333;align=center;spacingLeft=8.4;spacingRight=8.4;spacingTop=2.4;spacing=3.8;strokeOpacity=0;fillOpacity=0;rounded=1;absoluteArcSize=1;arcSize=12;fillColor=#ffffff;strokeWidth=0.8;" parent="1" vertex="1">
            <mxGeometry x="1067.5" y="675" width="45" height="45" as="geometry" />
          </mxCell>
        </UserObject>
        <mxCell id="fYfl7tJpDpbcizdKrOSa-27" value="User" style="html=1;overflow=block;blockSpacing=1;whiteSpace=wrap;swimlane;childLayout=stackLayout;horizontal=1;horizontalStack=0;resizeParent=1;resizeParentMax=0;resizeLast=0;collapsible=0;fontStyle=0;marginBottom=0;swimlaneFillColor=#ffffff;startSize=30;whiteSpace=wrap;fontSize=13.3;fontColor=#333333;fontStyle=2;align=center;spacingLeft=8.4;spacingRight=8.4;spacingTop=2.4;whiteSpace=wrap;fontFamily=Helvetica;spacing=3.6;strokeColor=#333333;strokeOpacity=100;fillOpacity=100;rounded=1;absoluteArcSize=1;arcSize=7.5;fillColor=#ffffff;strokeWidth=0.8;fillColor=#e0e0e0;" parent="1" vertex="1">
          <mxGeometry x="1050" y="494.5" width="150" height="177" as="geometry" />
        </mxCell>
        <mxCell id="fYfl7tJpDpbcizdKrOSa-28" value="first_name" style="part=1;resizeHeight=0;strokeColor=none;align=left;verticalAlign=top;spacingLeft=4;spacingRight=4;overflow=hidden;rotatable=0;points=[[0,0.5],[1,0.5]];portConstraint=eastwest;html=1;whiteSpace=wrap;swimlaneFillColor=#ffffff;fontSize=13;fontStyle=2;fillColor=none;strokeOpacity=100;fillOpacity=100;" parent="fYfl7tJpDpbcizdKrOSa-27" vertex="1">
          <mxGeometry y="30" width="150" height="24" as="geometry" />
        </mxCell>
        <mxCell id="fYfl7tJpDpbcizdKrOSa-29" value="last_name" style="part=1;resizeHeight=0;strokeColor=none;align=left;verticalAlign=top;spacingLeft=4;spacingRight=4;overflow=hidden;rotatable=0;points=[[0,0.5],[1,0.5]];portConstraint=eastwest;html=1;whiteSpace=wrap;swimlaneFillColor=#ffffff;fontSize=13;fontStyle=2;fillColor=#000000;opacity=5;" parent="fYfl7tJpDpbcizdKrOSa-27" vertex="1">
          <mxGeometry y="54" width="150" height="24" as="geometry" />
        </mxCell>
        <mxCell id="fYfl7tJpDpbcizdKrOSa-30" value="&lt;u&gt;user_name&lt;/u&gt;" style="part=1;resizeHeight=0;strokeColor=none;align=left;verticalAlign=top;spacingLeft=4;spacingRight=4;overflow=hidden;rotatable=0;points=[[0,0.5],[1,0.5]];portConstraint=eastwest;html=1;whiteSpace=wrap;swimlaneFillColor=#ffffff;fontSize=13.3;fontColor=#333333;fontStyle=2;fillColor=none;strokeOpacity=100;fillOpacity=100;" parent="fYfl7tJpDpbcizdKrOSa-27" vertex="1">
          <mxGeometry y="78" width="150" height="26.25" as="geometry" />
        </mxCell>
        <mxCell id="fYfl7tJpDpbcizdKrOSa-31" value="password&amp;nbsp;" style="part=1;resizeHeight=0;strokeColor=none;align=left;verticalAlign=top;spacingLeft=4;spacingRight=4;overflow=hidden;rotatable=0;points=[[0,0.5],[1,0.5]];portConstraint=eastwest;html=1;whiteSpace=wrap;swimlaneFillColor=#ffffff;fontSize=13.3;fontColor=#333333;fontStyle=2;fillColor=#000000;opacity=5;" parent="fYfl7tJpDpbcizdKrOSa-27" vertex="1">
          <mxGeometry y="104.25" width="150" height="26.25" as="geometry" />
        </mxCell>
        <mxCell id="5wrPwZhWaSoWG8kTcGbm-3" value="franchise_dealer" style="part=1;resizeHeight=0;strokeColor=none;align=left;verticalAlign=top;spacingLeft=4;spacingRight=4;overflow=hidden;rotatable=0;points=[[0,0.5],[1,0.5]];portConstraint=eastwest;html=1;whiteSpace=wrap;swimlaneFillColor=#ffffff;fontSize=13;fontStyle=2;fillColor=none;strokeOpacity=100;fillOpacity=100;" vertex="1" parent="fYfl7tJpDpbcizdKrOSa-27">
          <mxGeometry y="130.5" width="150" height="22.5" as="geometry" />
        </mxCell>
        <mxCell id="5wrPwZhWaSoWG8kTcGbm-4" value="seller_rating" style="part=1;resizeHeight=0;strokeColor=none;align=left;verticalAlign=top;spacingLeft=4;spacingRight=4;overflow=hidden;rotatable=0;points=[[0,0.5],[1,0.5]];portConstraint=eastwest;html=1;whiteSpace=wrap;swimlaneFillColor=#ffffff;fontSize=13;fontStyle=2;fillColor=none;strokeOpacity=100;fillOpacity=100;" vertex="1" parent="fYfl7tJpDpbcizdKrOSa-27">
          <mxGeometry y="153" width="150" height="24" as="geometry" />
        </mxCell>
        <mxCell id="fYfl7tJpDpbcizdKrOSa-35" value="User can be seller or/ and buyer&lt;br&gt;&lt;br&gt;If they are loggin in as buyer, then their saved_listings are stored in this attribute" style="text;html=1;strokeColor=none;fillColor=none;align=center;verticalAlign=middle;whiteSpace=wrap;rounded=0;" parent="1" vertex="1">
          <mxGeometry x="860" y="720" width="150" height="20" as="geometry" />
        </mxCell>
        <mxCell id="fYfl7tJpDpbcizdKrOSa-63" style="edgeStyle=orthogonalEdgeStyle;rounded=0;orthogonalLoop=1;jettySize=auto;html=1;exitX=0.5;exitY=0;exitDx=0;exitDy=0;entryX=0.494;entryY=0.958;entryDx=0;entryDy=0;entryPerimeter=0;endArrow=none;endFill=0;" parent="1" source="fYfl7tJpDpbcizdKrOSa-43" target="3H3uGRBCsn2Afm0DeiXc-53" edge="1">
          <mxGeometry relative="1" as="geometry">
            <Array as="points">
              <mxPoint x="1122" y="363" />
            </Array>
            <mxPoint x="1121.195" y="335.3900000000001" as="targetPoint" />
          </mxGeometry>
        </mxCell>
        <mxCell id="fYfl7tJpDpbcizdKrOSa-64" style="edgeStyle=orthogonalEdgeStyle;rounded=0;orthogonalLoop=1;jettySize=auto;html=1;exitX=0.5;exitY=1;exitDx=0;exitDy=0;entryX=0.5;entryY=0;entryDx=0;entryDy=0;endArrow=none;endFill=0;" parent="1" source="fYfl7tJpDpbcizdKrOSa-43" target="fYfl7tJpDpbcizdKrOSa-27" edge="1">
          <mxGeometry relative="1" as="geometry" />
        </mxCell>
        <UserObject label="isSeller" lucidchartObjectId="b9Gj.C_cyj7R" id="fYfl7tJpDpbcizdKrOSa-43">
          <mxCell style="html=1;overflow=block;blockSpacing=1;whiteSpace=wrap;rhombus;whiteSpace=wrap;fontSize=13.3;align=center;spacingLeft=8.4;spacingRight=8.4;spacingTop=2.4;spacing=3.8;strokeColor=#C73500;strokeOpacity=100;fillOpacity=100;rounded=1;absoluteArcSize=1;arcSize=12;fillColor=#fa6800;strokeWidth=0.8;fontColor=#ffffff;" parent="1" vertex="1">
            <mxGeometry x="1057.5" y="362.75" width="130" height="100" as="geometry" />
          </mxCell>
        </UserObject>
        <UserObject label="1:1" lucidchartObjectId="57Gj_qIqhHUQ" id="fYfl7tJpDpbcizdKrOSa-46">
          <mxCell style="html=1;overflow=block;blockSpacing=1;whiteSpace=wrap;;whiteSpace=wrap;fontSize=13.3;fontColor=#333333;align=center;spacingLeft=8.4;spacingRight=8.4;spacingTop=2.4;spacing=3.8;strokeOpacity=0;fillOpacity=0;rounded=1;absoluteArcSize=1;arcSize=12;fillColor=#ffffff;strokeWidth=0.8;" parent="1" vertex="1">
            <mxGeometry x="1130" y="325.25" width="45" height="45" as="geometry" />
          </mxCell>
        </UserObject>
        <UserObject label="1:1" lucidchartObjectId="57Gj_qIqhHUQ" id="fYfl7tJpDpbcizdKrOSa-47">
          <mxCell style="html=1;overflow=block;blockSpacing=1;whiteSpace=wrap;;whiteSpace=wrap;fontSize=13.3;fontColor=#333333;align=center;spacingLeft=8.4;spacingRight=8.4;spacingTop=2.4;spacing=3.8;strokeOpacity=0;fillOpacity=0;rounded=1;absoluteArcSize=1;arcSize=12;fillColor=#ffffff;strokeWidth=0.8;" parent="1" vertex="1">
            <mxGeometry x="1120" y="456.5" width="45" height="45" as="geometry" />
          </mxCell>
        </UserObject>
        <mxCell id="fYfl7tJpDpbcizdKrOSa-55" value="SavedListing" style="html=1;overflow=block;blockSpacing=1;whiteSpace=wrap;swimlane;childLayout=stackLayout;horizontal=1;horizontalStack=0;resizeParent=1;resizeParentMax=0;resizeLast=0;collapsible=0;fontStyle=0;marginBottom=0;swimlaneFillColor=#ffffff;startSize=30;whiteSpace=wrap;fontSize=13.3;fontColor=#333333;fontStyle=2;align=center;spacingLeft=8.4;spacingRight=8.4;spacingTop=2.4;whiteSpace=wrap;fontFamily=Helvetica;spacing=3.6;strokeColor=#333333;strokeOpacity=100;fillOpacity=100;rounded=1;absoluteArcSize=1;arcSize=7.5;fillColor=#ffffff;strokeWidth=0.8;fillColor=#e0e0e0;" parent="1" vertex="1">
          <mxGeometry x="1415" y="570.88" width="150" height="82.5" as="geometry" />
        </mxCell>
        <mxCell id="fYfl7tJpDpbcizdKrOSa-57" value="&lt;u&gt;listing_id&amp;nbsp;&lt;/u&gt;" style="part=1;resizeHeight=0;strokeColor=none;align=left;verticalAlign=top;spacingLeft=4;spacingRight=4;overflow=hidden;rotatable=0;points=[[0,0.5],[1,0.5]];portConstraint=eastwest;html=1;whiteSpace=wrap;swimlaneFillColor=#ffffff;fontSize=13.3;fontColor=#333333;fontStyle=2;fillColor=#000000;opacity=5;" parent="fYfl7tJpDpbcizdKrOSa-55" vertex="1">
          <mxGeometry y="30" width="150" height="26.25" as="geometry" />
        </mxCell>
        <mxCell id="5wrPwZhWaSoWG8kTcGbm-5" value="&lt;u&gt;user_name&lt;/u&gt;" style="part=1;resizeHeight=0;strokeColor=none;align=left;verticalAlign=top;spacingLeft=4;spacingRight=4;overflow=hidden;rotatable=0;points=[[0,0.5],[1,0.5]];portConstraint=eastwest;html=1;whiteSpace=wrap;swimlaneFillColor=#ffffff;fontSize=13.3;fontColor=#333333;fontStyle=2;fillColor=#000000;opacity=5;" vertex="1" parent="fYfl7tJpDpbcizdKrOSa-55">
          <mxGeometry y="56.25" width="150" height="26.25" as="geometry" />
        </mxCell>
        <mxCell id="fYfl7tJpDpbcizdKrOSa-65" style="edgeStyle=orthogonalEdgeStyle;rounded=0;orthogonalLoop=1;jettySize=auto;html=1;exitX=1;exitY=0.5;exitDx=0;exitDy=0;entryX=0;entryY=0.5;entryDx=0;entryDy=0;endArrow=none;endFill=0;" parent="1" source="fYfl7tJpDpbcizdKrOSa-60" target="fYfl7tJpDpbcizdKrOSa-55" edge="1">
          <mxGeometry relative="1" as="geometry" />
        </mxCell>
        <mxCell id="fYfl7tJpDpbcizdKrOSa-66" style="edgeStyle=orthogonalEdgeStyle;rounded=0;orthogonalLoop=1;jettySize=auto;html=1;exitX=0;exitY=0.5;exitDx=0;exitDy=0;entryX=1.008;entryY=1.007;entryDx=0;entryDy=0;entryPerimeter=0;endArrow=none;endFill=0;" parent="1" source="fYfl7tJpDpbcizdKrOSa-62" target="fYfl7tJpDpbcizdKrOSa-30" edge="1">
          <mxGeometry relative="1" as="geometry" />
        </mxCell>
        <mxCell id="fYfl7tJpDpbcizdKrOSa-68" style="edgeStyle=orthogonalEdgeStyle;rounded=0;orthogonalLoop=1;jettySize=auto;html=1;exitX=1;exitY=0.5;exitDx=0;exitDy=0;endArrow=none;endFill=0;" parent="1" source="fYfl7tJpDpbcizdKrOSa-62" edge="1">
          <mxGeometry relative="1" as="geometry">
            <mxPoint x="1415" y="598.9264705882354" as="targetPoint" />
          </mxGeometry>
        </mxCell>
        <UserObject label="hasSavedListings" lucidchartObjectId="b9Gj.C_cyj7R" id="fYfl7tJpDpbcizdKrOSa-62">
          <mxCell style="html=1;overflow=block;blockSpacing=1;whiteSpace=wrap;rhombus;whiteSpace=wrap;fontSize=13.3;align=center;spacingLeft=8.4;spacingRight=8.4;spacingTop=2.4;spacing=3.8;strokeColor=#BD7000;strokeOpacity=100;fillOpacity=100;rounded=1;absoluteArcSize=1;arcSize=12;fillColor=#f0a30a;strokeWidth=0.8;fontColor=#ffffff;" parent="1" vertex="1">
            <mxGeometry x="1240" y="549" width="130" height="100" as="geometry" />
          </mxCell>
        </UserObject>
        <UserObject label="1:*" lucidchartObjectId="57Gj_qIqhHUQ" id="fYfl7tJpDpbcizdKrOSa-60">
          <mxCell style="html=1;overflow=block;blockSpacing=1;whiteSpace=wrap;;whiteSpace=wrap;fontSize=13.3;fontColor=#333333;align=center;spacingLeft=8.4;spacingRight=8.4;spacingTop=2.4;spacing=3.8;strokeOpacity=0;fillOpacity=0;rounded=1;absoluteArcSize=1;arcSize=12;fillColor=#ffffff;strokeWidth=0.8;" parent="1" vertex="1">
            <mxGeometry x="1370" y="557.75" width="45" height="45" as="geometry" />
          </mxCell>
        </UserObject>
        <UserObject label="0:*" lucidchartObjectId="57Gj_qIqhHUQ" id="fYfl7tJpDpbcizdKrOSa-69">
          <mxCell style="html=1;overflow=block;blockSpacing=1;whiteSpace=wrap;;whiteSpace=wrap;fontSize=13.3;fontColor=#333333;align=center;spacingLeft=8.4;spacingRight=8.4;spacingTop=2.4;spacing=3.8;strokeOpacity=0;fillOpacity=0;rounded=1;absoluteArcSize=1;arcSize=12;fillColor=#ffffff;strokeWidth=0.8;" parent="1" vertex="1">
            <mxGeometry x="1195" y="552.75" width="45" height="45" as="geometry" />
          </mxCell>
        </UserObject>
        <mxCell id="fYfl7tJpDpbcizdKrOSa-70" value="confirm cardinality here" style="text;html=1;align=center;verticalAlign=middle;resizable=0;points=[];autosize=1;fillColor=#e51400;strokeColor=#B20000;fontColor=#ffffff;" parent="1" vertex="1">
          <mxGeometry x="1290" y="522.75" width="140" height="20" as="geometry" />
        </mxCell>
        <mxCell id="fYfl7tJpDpbcizdKrOSa-73" style="edgeStyle=orthogonalEdgeStyle;rounded=0;orthogonalLoop=1;jettySize=auto;html=1;exitX=1;exitY=0.5;exitDx=0;exitDy=0;entryX=0;entryY=0.5;entryDx=0;entryDy=0;endArrow=none;endFill=0;" parent="1" source="3H3uGRBCsn2Afm0DeiXc-13" target="3H3uGRBCsn2Afm0DeiXc-98" edge="1">
          <mxGeometry relative="1" as="geometry" />
        </mxCell>
        <UserObject label="1:*" lucidchartObjectId="_7Gj-IkTM0cN" id="fYfl7tJpDpbcizdKrOSa-74">
          <mxCell style="html=1;overflow=block;blockSpacing=1;whiteSpace=wrap;;whiteSpace=wrap;fontSize=13.3;fontColor=#333333;align=center;spacingLeft=8.4;spacingRight=8.4;spacingTop=2.4;spacing=3.8;strokeOpacity=0;fillOpacity=0;rounded=1;absoluteArcSize=1;arcSize=12;fillColor=#ffffff;strokeWidth=0.8;" parent="1" vertex="1">
            <mxGeometry x="807.5" y="285" width="45" height="45" as="geometry" />
          </mxCell>
        </UserObject>
        <mxCell id="-xnILZnBBjIAdlvHm83F-1" value="User can have 0 saved listings or as many as he wants" style="text;html=1;align=center;verticalAlign=middle;resizable=0;points=[];autosize=1;" parent="1" vertex="1">
          <mxGeometry x="1205" y="502.75" width="310" height="20" as="geometry" />
        </mxCell>
        <mxCell id="-xnILZnBBjIAdlvHm83F-2" value="each saved listing as atleast 1 user and has no upper bound of times it can be saved" style="text;html=1;align=center;verticalAlign=middle;resizable=0;points=[];autosize=1;" parent="1" vertex="1">
          <mxGeometry x="1310" y="670" width="470" height="20" as="geometry" />
        </mxCell>
      </root>
    </mxGraphModel>
  </diagram>
</mxfile>
